<svg width="430" height="276" viewBox="0 0 430 276" fill="none" xmlns="http://www.w3.org/2000/svg">
<path d="M538.595 1.86961C538.595 2.90217 539.392 3.73923 540.376 3.73923C541.359 3.73923 542.156 2.90217 542.156 1.86961C542.156 0.837055 541.359 0 540.376 0C539.392 0 538.595 0.837055 538.595 1.86961Z" fill="#B7E5FF"/>
<path d="M493.614 1.86961C493.614 2.90217 494.411 3.73923 495.395 3.73923C496.378 3.73923 497.176 2.90217 497.176 1.86961C497.176 0.837055 496.378 0 495.395 0C494.411 0 493.614 0.837055 493.614 1.86961Z" fill="#B7E5FF"/>
<path d="M448.633 1.86961C448.633 2.90217 449.431 3.73923 450.414 3.73923C451.398 3.73923 452.195 2.90217 452.195 1.86961C452.195 0.837055 451.398 0 450.414 0C449.431 0 448.633 0.837055 448.633 1.86961Z" fill="#B7E5FF"/>
<path d="M403.653 1.86961C403.653 2.90217 404.45 3.73923 405.433 3.73923C406.417 3.73923 407.214 2.90217 407.214 1.86961C407.214 0.837055 406.417 0 405.433 0C404.45 0 403.653 0.837055 403.653 1.86961Z" fill="#B7E5FF"/>
<path d="M358.672 1.86961C358.672 2.90217 359.469 3.73923 360.453 3.73923C361.436 3.73923 362.234 2.90217 362.234 1.86961C362.234 0.837055 361.436 0 360.453 0C359.469 0 358.672 0.837055 358.672 1.86961Z" fill="#B7E5FF"/>
<path d="M313.691 1.86961C313.691 2.90217 314.489 3.73923 315.472 3.73923C316.456 3.73923 317.253 2.90217 317.253 1.86961C317.253 0.837055 316.456 0 315.472 0C314.489 0 313.691 0.837055 313.691 1.86961Z" fill="#B7E5FF"/>
<path d="M268.711 1.86961C268.711 2.90217 269.508 3.73923 270.491 3.73923C271.475 3.73923 272.272 2.90217 272.272 1.86961C272.272 0.837055 271.475 0 270.491 0C269.508 0 268.711 0.837055 268.711 1.86961Z" fill="#B7E5FF"/>
<path d="M223.73 1.86961C223.73 2.90217 224.527 3.73923 225.511 3.73923C226.494 3.73923 227.292 2.90217 227.292 1.86961C227.292 0.837055 226.494 0 225.511 0C224.527 0 223.73 0.837055 223.73 1.86961Z" fill="#B7E5FF"/>
<path d="M178.749 1.86961C178.749 2.90217 179.547 3.73923 180.53 3.73923C181.514 3.73923 182.311 2.90217 182.311 1.86961C182.311 0.837055 181.514 0 180.53 0C179.547 0 178.749 0.837055 178.749 1.86961Z" fill="#B7E5FF"/>
<path d="M133.769 1.86961C133.769 2.90217 134.566 3.73923 135.549 3.73923C136.533 3.73923 137.33 2.90217 137.33 1.86961C137.33 0.837055 136.533 0 135.549 0C134.566 0 133.769 0.837055 133.769 1.86961Z" fill="#B7E5FF"/>
<path d="M88.788 1.86961C88.788 2.90217 89.5853 3.73923 90.5688 3.73923C91.5523 3.73923 92.3496 2.90217 92.3496 1.86961C92.3496 0.837055 91.5523 0 90.5688 0C89.5853 0 88.788 0.837055 88.788 1.86961Z" fill="#B7E5FF"/>
<path d="M43.8073 1.86961C43.8073 2.90217 44.6046 3.73923 45.5881 3.73923C46.5716 3.73923 47.369 2.90217 47.369 1.86961C47.369 0.837055 46.5716 0 45.5881 0C44.6046 0 43.8073 0.837055 43.8073 1.86961Z" fill="#B7E5FF"/>
<path d="M-1.17336 1.86961C-1.17336 2.90217 -0.376062 3.73923 0.607461 3.73923C1.59098 3.73923 2.38828 2.90217 2.38828 1.86961C2.38828 0.837055 1.59098 0 0.607461 0C-0.376062 0 -1.17336 0.837055 -1.17336 1.86961Z" fill="#B7E5FF"/>
<path d="M560.66 49.0929C560.66 50.3721 561.647 51.409 562.866 51.409C564.084 51.409 565.072 50.3721 565.072 49.0929C565.072 47.8138 564.084 46.7768 562.866 46.7768C561.647 46.7768 560.66 47.8138 560.66 49.0929Z" fill="#B7E5FF"/>
<path d="M515.679 49.0929C515.679 50.3721 516.667 51.409 517.885 51.409C519.104 51.409 520.091 50.3721 520.091 49.0929C520.091 47.8138 519.104 46.7768 517.885 46.7768C516.667 46.7768 515.679 47.8138 515.679 49.0929Z" fill="#B7E5FF"/>
<path d="M470.698 49.0929C470.698 50.3721 471.686 51.409 472.905 51.409C474.123 51.409 475.111 50.3721 475.111 49.0929C475.111 47.8138 474.123 46.7768 472.905 46.7768C471.686 46.7768 470.698 47.8138 470.698 49.0929Z" fill="#B7E5FF"/>
<path d="M425.718 49.0929C425.718 50.3721 426.705 51.409 427.924 51.409C429.142 51.409 430.13 50.3721 430.13 49.0929C430.13 47.8138 429.142 46.7768 427.924 46.7768C426.705 46.7768 425.718 47.8138 425.718 49.0929Z" fill="#B7E5FF"/>
<path d="M380.737 49.0929C380.737 50.3721 381.725 51.409 382.943 51.409C384.162 51.409 385.149 50.3721 385.149 49.0929C385.149 47.8138 384.162 46.7768 382.943 46.7768C381.725 46.7768 380.737 47.8138 380.737 49.0929Z" fill="#B7E5FF"/>
<path d="M335.756 49.0929C335.756 50.3721 336.744 51.409 337.962 51.409C339.181 51.409 340.169 50.3721 340.169 49.0929C340.169 47.8138 339.181 46.7768 337.962 46.7768C336.744 46.7768 335.756 47.8138 335.756 49.0929Z" fill="#B7E5FF"/>
<path d="M290.776 49.0929C290.776 50.3721 291.763 51.409 292.982 51.409C294.2 51.409 295.188 50.3721 295.188 49.0929C295.188 47.8138 294.2 46.7768 292.982 46.7768C291.763 46.7768 290.776 47.8138 290.776 49.0929Z" fill="#B7E5FF"/>
<path d="M245.795 49.0929C245.795 50.3721 246.783 51.409 248.001 51.409C249.22 51.409 250.207 50.3721 250.207 49.0929C250.207 47.8138 249.22 46.7768 248.001 46.7768C246.783 46.7768 245.795 47.8138 245.795 49.0929Z" fill="#B7E5FF"/>
<path d="M200.814 49.0929C200.814 50.3721 201.802 51.409 203.02 51.409C204.239 51.409 205.227 50.3721 205.227 49.0929C205.227 47.8138 204.239 46.7768 203.02 46.7768C201.802 46.7768 200.814 47.8138 200.814 49.0929Z" fill="#B7E5FF"/>
<path d="M155.834 49.0929C155.834 50.3721 156.821 51.409 158.04 51.409C159.258 51.409 160.246 50.3721 160.246 49.0929C160.246 47.8138 159.258 46.7768 158.04 46.7768C156.821 46.7768 155.834 47.8138 155.834 49.0929Z" fill="#B7E5FF"/>
<path d="M110.853 49.0929C110.853 50.3721 111.841 51.409 113.059 51.409C114.278 51.409 115.265 50.3721 115.265 49.0929C115.265 47.8138 114.278 46.7768 113.059 46.7768C111.841 46.7768 110.853 47.8138 110.853 49.0929Z" fill="#B7E5FF"/>
<path d="M65.8724 49.0929C65.8724 50.3721 66.8601 51.409 68.0785 51.409C69.2969 51.409 70.2846 50.3721 70.2846 49.0929C70.2846 47.8138 69.2969 46.7768 68.0785 46.7768C66.8601 46.7768 65.8724 47.8138 65.8724 49.0929Z" fill="#B7E5FF"/>
<path d="M20.8917 49.0929C20.8917 50.3721 21.8794 51.409 23.0978 51.409C24.3162 51.409 25.3039 50.3721 25.3039 49.0929C25.3039 47.8138 24.3162 46.7768 23.0978 46.7768C21.8794 46.7768 20.8917 47.8138 20.8917 49.0929Z" fill="#B7E5FF"/>
<path d="M537.718 96.3163C537.718 97.8574 538.908 99.1067 540.376 99.1067C541.843 99.1067 543.033 97.8574 543.033 96.3163C543.033 94.7751 541.843 93.5258 540.376 93.5258C538.908 93.5258 537.718 94.7751 537.718 96.3163Z" fill="#B7E5FF"/>
<path d="M492.737 96.3163C492.737 97.8574 493.927 99.1067 495.395 99.1067C496.863 99.1067 498.053 97.8574 498.053 96.3163C498.053 94.7751 496.863 93.5258 495.395 93.5258C493.927 93.5258 492.737 94.7751 492.737 96.3163Z" fill="#B7E5FF"/>
<path d="M447.756 96.3163C447.756 97.8574 448.946 99.1067 450.414 99.1067C451.882 99.1067 453.072 97.8574 453.072 96.3163C453.072 94.7751 451.882 93.5258 450.414 93.5258C448.946 93.5258 447.756 94.7751 447.756 96.3163Z" fill="#B7E5FF"/>
<path d="M402.776 96.3163C402.776 97.8574 403.966 99.1067 405.433 99.1067C406.901 99.1067 408.091 97.8574 408.091 96.3163C408.091 94.7751 406.901 93.5258 405.433 93.5258C403.966 93.5258 402.776 94.7751 402.776 96.3163Z" fill="#B7E5FF"/>
<path d="M357.795 96.3163C357.795 97.8574 358.985 99.1067 360.453 99.1067C361.921 99.1067 363.111 97.8574 363.111 96.3163C363.111 94.7751 361.921 93.5258 360.453 93.5258C358.985 93.5258 357.795 94.7751 357.795 96.3163Z" fill="#B7E5FF"/>
<path d="M312.814 96.3163C312.814 97.8574 314.004 99.1067 315.472 99.1067C316.94 99.1067 318.13 97.8574 318.13 96.3163C318.13 94.7751 316.94 93.5258 315.472 93.5258C314.004 93.5258 312.814 94.7751 312.814 96.3163Z" fill="#B7E5FF"/>
<path d="M267.834 96.3163C267.834 97.8574 269.024 99.1067 270.491 99.1067C271.959 99.1067 273.149 97.8574 273.149 96.3163C273.149 94.7751 271.959 93.5258 270.491 93.5258C269.024 93.5258 267.834 94.7751 267.834 96.3163Z" fill="#B7E5FF"/>
<path d="M222.853 96.3163C222.853 97.8574 224.043 99.1067 225.511 99.1067C226.979 99.1067 228.169 97.8574 228.169 96.3163C228.169 94.7751 226.979 93.5258 225.511 93.5258C224.043 93.5258 222.853 94.7751 222.853 96.3163Z" fill="#B7E5FF"/>
<path d="M177.872 96.3163C177.872 97.8574 179.062 99.1067 180.53 99.1067C181.998 99.1067 183.188 97.8574 183.188 96.3163C183.188 94.7751 181.998 93.5258 180.53 93.5258C179.062 93.5258 177.872 94.7751 177.872 96.3163Z" fill="#B7E5FF"/>
<path d="M132.892 96.3163C132.892 97.8574 134.082 99.1067 135.549 99.1067C137.017 99.1067 138.207 97.8574 138.207 96.3163C138.207 94.7751 137.017 93.5258 135.549 93.5258C134.082 93.5258 132.892 94.7751 132.892 96.3163Z" fill="#B7E5FF"/>
<path d="M87.9108 96.3163C87.9108 97.8574 89.1008 99.1067 90.5688 99.1067C92.0367 99.1067 93.2267 97.8574 93.2267 96.3163C93.2267 94.7751 92.0367 93.5258 90.5688 93.5258C89.1008 93.5258 87.9108 94.7751 87.9108 96.3163Z" fill="#B7E5FF"/>
<path d="M42.9302 96.3163C42.9302 97.8574 44.1202 99.1067 45.5881 99.1067C47.056 99.1067 48.2461 97.8574 48.2461 96.3163C48.2461 94.7751 47.056 93.5258 45.5881 93.5258C44.1202 93.5258 42.9302 94.7751 42.9302 96.3163Z" fill="#B7E5FF"/>
<path d="M-2.05049 96.3163C-2.05049 97.8574 -0.860484 99.1067 0.607461 99.1067C2.07541 99.1067 3.26541 97.8574 3.26541 96.3163C3.26541 94.7751 2.07541 93.5258 0.607461 93.5258C-0.860484 93.5258 -2.05049 94.7751 -2.05049 96.3163Z" fill="#B7E5FF"/>
<path d="M559.756 143.54C559.756 145.343 561.148 146.804 562.866 146.804C564.583 146.804 565.976 145.343 565.976 143.54C565.976 141.736 564.583 140.275 562.866 140.275C561.148 140.275 559.756 141.736 559.756 143.54Z" fill="#B7E5FF"/>
<path d="M514.775 143.54C514.775 145.343 516.168 146.804 517.885 146.804C519.603 146.804 520.995 145.343 520.995 143.54C520.995 141.736 519.603 140.275 517.885 140.275C516.168 140.275 514.775 141.736 514.775 143.54Z" fill="#B7E5FF"/>
<path d="M469.795 143.54C469.795 145.343 471.187 146.804 472.905 146.804C474.622 146.804 476.014 145.343 476.014 143.54C476.014 141.736 474.622 140.275 472.905 140.275C471.187 140.275 469.795 141.736 469.795 143.54Z" fill="#B7E5FF"/>
<path d="M424.814 143.54C424.814 145.343 426.206 146.804 427.924 146.804C429.641 146.804 431.034 145.343 431.034 143.54C431.034 141.736 429.641 140.275 427.924 140.275C426.206 140.275 424.814 141.736 424.814 143.54Z" fill="#B7E5FF"/>
<path d="M379.833 143.54C379.833 145.343 381.226 146.804 382.943 146.804C384.661 146.804 386.053 145.343 386.053 143.54C386.053 141.736 384.661 140.275 382.943 140.275C381.226 140.275 379.833 141.736 379.833 143.54Z" fill="#B7E5FF"/>
<path d="M334.853 143.54C334.853 145.343 336.245 146.804 337.962 146.804C339.68 146.804 341.072 145.343 341.072 143.54C341.072 141.736 339.68 140.275 337.962 140.275C336.245 140.275 334.853 141.736 334.853 143.54Z" fill="#B7E5FF"/>
<path d="M289.872 143.54C289.872 145.343 291.264 146.804 292.982 146.804C294.699 146.804 296.092 145.343 296.092 143.54C296.092 141.736 294.699 140.275 292.982 140.275C291.264 140.275 289.872 141.736 289.872 143.54Z" fill="#B7E5FF"/>
<path d="M244.891 143.54C244.891 145.343 246.284 146.804 248.001 146.804C249.719 146.804 251.111 145.343 251.111 143.54C251.111 141.736 249.719 140.275 248.001 140.275C246.284 140.275 244.891 141.736 244.891 143.54Z" fill="#B7E5FF"/>
<path d="M199.911 143.54C199.911 145.343 201.303 146.804 203.02 146.804C204.738 146.804 206.13 145.343 206.13 143.54C206.13 141.736 204.738 140.275 203.02 140.275C201.303 140.275 199.911 141.736 199.911 143.54Z" fill="#B7E5FF"/>
<path d="M154.93 143.54C154.93 145.343 156.322 146.804 158.04 146.804C159.757 146.804 161.15 145.343 161.15 143.54C161.15 141.736 159.757 140.275 158.04 140.275C156.322 140.275 154.93 141.736 154.93 143.54Z" fill="#B7E5FF"/>
<path d="M109.949 143.54C109.949 145.343 111.342 146.804 113.059 146.804C114.777 146.804 116.169 145.343 116.169 143.54C116.169 141.736 114.777 140.275 113.059 140.275C111.342 140.275 109.949 141.736 109.949 143.54Z" fill="#B7E5FF"/>
<path d="M64.9687 143.54C64.9687 145.343 66.361 146.804 68.0785 146.804C69.796 146.804 71.1883 145.343 71.1883 143.54C71.1883 141.736 69.796 140.275 68.0785 140.275C66.361 140.275 64.9687 141.736 64.9687 143.54Z" fill="#B7E5FF"/>
<path d="M19.988 143.54C19.988 145.343 21.3803 146.804 23.0978 146.804C24.8153 146.804 26.2076 145.343 26.2076 143.54C26.2076 141.736 24.8153 140.275 23.0978 140.275C21.3803 140.275 19.988 141.736 19.988 143.54Z" fill="#B7E5FF"/>
<path d="M536.84 190.763C536.84 192.813 538.423 194.474 540.376 194.474C542.328 194.474 543.911 192.813 543.911 190.763C543.911 188.713 542.328 187.052 540.376 187.052C538.423 187.052 536.84 188.713 536.84 190.763Z" fill="#B7E5FF"/>
<path d="M491.86 190.763C491.86 192.813 493.442 194.474 495.395 194.474C497.347 194.474 498.93 192.813 498.93 190.763C498.93 188.713 497.347 187.052 495.395 187.052C493.442 187.052 491.86 188.713 491.86 190.763Z" fill="#B7E5FF"/>
<path d="M446.879 190.763C446.879 192.813 448.462 194.474 450.414 194.474C452.367 194.474 453.949 192.813 453.949 190.763C453.949 188.713 452.367 187.052 450.414 187.052C448.462 187.052 446.879 188.713 446.879 190.763Z" fill="#B7E5FF"/>
<path d="M401.898 190.763C401.898 192.813 403.481 194.474 405.433 194.474C407.386 194.474 408.969 192.813 408.969 190.763C408.969 188.713 407.386 187.052 405.433 187.052C403.481 187.052 401.898 188.713 401.898 190.763Z" fill="#B7E5FF"/>
<path d="M356.918 190.763C356.918 192.813 358.5 194.474 360.453 194.474C362.405 194.474 363.988 192.813 363.988 190.763C363.988 188.713 362.405 187.052 360.453 187.052C358.5 187.052 356.918 188.713 356.918 190.763Z" fill="#B7E5FF"/>
<path d="M311.937 190.763C311.937 192.813 313.52 194.474 315.472 194.474C317.425 194.474 319.007 192.813 319.007 190.763C319.007 188.713 317.425 187.052 315.472 187.052C313.52 187.052 311.937 188.713 311.937 190.763Z" fill="#B7E5FF"/>
<path d="M266.956 190.763C266.956 192.813 268.539 194.474 270.491 194.474C272.444 194.474 274.027 192.813 274.027 190.763C274.027 188.713 272.444 187.052 270.491 187.052C268.539 187.052 266.956 188.713 266.956 190.763Z" fill="#B7E5FF"/>
<path d="M221.976 190.763C221.976 192.813 223.558 194.474 225.511 194.474C227.463 194.474 229.046 192.813 229.046 190.763C229.046 188.713 227.463 187.052 225.511 187.052C223.558 187.052 221.976 188.713 221.976 190.763Z" fill="#B7E5FF"/>
<path d="M176.995 190.763C176.995 192.813 178.578 194.474 180.53 194.474C182.483 194.474 184.065 192.813 184.065 190.763C184.065 188.713 182.483 187.052 180.53 187.052C178.578 187.052 176.995 188.713 176.995 190.763Z" fill="#B7E5FF"/>
<path d="M132.014 190.763C132.014 192.813 133.597 194.474 135.549 194.474C137.502 194.474 139.085 192.813 139.085 190.763C139.085 188.713 137.502 187.052 135.549 187.052C133.597 187.052 132.014 188.713 132.014 190.763Z" fill="#B7E5FF"/>
<path d="M87.0337 190.763C87.0337 192.813 88.6164 194.474 90.5688 194.474C92.5212 194.474 94.1039 192.813 94.1039 190.763C94.1039 188.713 92.5212 187.052 90.5688 187.052C88.6164 187.052 87.0337 188.713 87.0337 190.763Z" fill="#B7E5FF"/>
<path d="M42.0531 190.763C42.0531 192.813 43.6357 194.474 45.5881 194.474C47.5405 194.474 49.1232 192.813 49.1232 190.763C49.1232 188.713 47.5405 187.052 45.5881 187.052C43.6357 187.052 42.0531 188.713 42.0531 190.763Z" fill="#B7E5FF"/>
<path d="M-2.92762 190.763C-2.92762 192.813 -1.34491 194.474 0.607461 194.474C2.55983 194.474 4.14254 192.813 4.14254 190.763C4.14254 188.713 2.55983 187.052 0.607461 187.052C-1.34491 187.052 -2.92762 188.713 -2.92762 190.763Z" fill="#B7E5FF"/>
<path d="M558.879 237.986C558.879 240.298 560.664 242.172 562.866 242.172C565.068 242.172 566.853 240.298 566.853 237.986C566.853 235.674 565.068 233.8 562.866 233.8C560.664 233.8 558.879 235.674 558.879 237.986Z" fill="#B7E5FF"/>
<path d="M513.898 237.986C513.898 240.298 515.683 242.172 517.885 242.172C520.087 242.172 521.872 240.298 521.872 237.986C521.872 235.674 520.087 233.8 517.885 233.8C515.683 233.8 513.898 235.674 513.898 237.986Z" fill="#B7E5FF"/>
<path d="M468.918 237.986C468.918 240.298 470.703 242.172 472.905 242.172C475.106 242.172 476.891 240.298 476.891 237.986C476.891 235.674 475.106 233.8 472.905 233.8C470.703 233.8 468.918 235.674 468.918 237.986Z" fill="#B7E5FF"/>
<path d="M423.937 237.986C423.937 240.298 425.722 242.172 427.924 242.172C430.126 242.172 431.911 240.298 431.911 237.986C431.911 235.674 430.126 233.8 427.924 233.8C425.722 233.8 423.937 235.674 423.937 237.986Z" fill="#B7E5FF"/>
<path d="M378.956 237.986C378.956 240.298 380.741 242.172 382.943 242.172C385.145 242.172 386.93 240.298 386.93 237.986C386.93 235.674 385.145 233.8 382.943 233.8C380.741 233.8 378.956 235.674 378.956 237.986Z" fill="#B7E5FF"/>
<path d="M333.976 237.986C333.976 240.298 335.761 242.172 337.962 242.172C340.164 242.172 341.949 240.298 341.949 237.986C341.949 235.674 340.164 233.8 337.962 233.8C335.761 233.8 333.976 235.674 333.976 237.986Z" fill="#B7E5FF"/>
<path d="M288.995 237.986C288.995 240.298 290.78 242.172 292.982 242.172C295.184 242.172 296.969 240.298 296.969 237.986C296.969 235.674 295.184 233.8 292.982 233.8C290.78 233.8 288.995 235.674 288.995 237.986Z" fill="#B7E5FF"/>
<path d="M244.014 237.986C244.014 240.298 245.799 242.172 248.001 242.172C250.203 242.172 251.988 240.298 251.988 237.986C251.988 235.674 250.203 233.8 248.001 233.8C245.799 233.8 244.014 235.674 244.014 237.986Z" fill="#B7E5FF"/>
<path d="M199.034 237.986C199.034 240.298 200.819 242.172 203.02 242.172C205.222 242.172 207.007 240.298 207.007 237.986C207.007 235.674 205.222 233.8 203.02 233.8C200.819 233.8 199.034 235.674 199.034 237.986Z" fill="#B7E5FF"/>
<path d="M154.053 237.986C154.053 240.298 155.838 242.172 158.04 242.172C160.242 242.172 162.027 240.298 162.027 237.986C162.027 235.674 160.242 233.8 158.04 233.8C155.838 233.8 154.053 235.674 154.053 237.986Z" fill="#B7E5FF"/>
<path d="M109.072 237.986C109.072 240.298 110.857 242.172 113.059 242.172C115.261 242.172 117.046 240.298 117.046 237.986C117.046 235.674 115.261 233.8 113.059 233.8C110.857 233.8 109.072 235.674 109.072 237.986Z" fill="#B7E5FF"/>
<path d="M64.0915 237.986C64.0915 240.298 65.8766 242.172 68.0785 242.172C70.2804 242.172 72.0654 240.298 72.0654 237.986C72.0654 235.674 70.2804 233.8 68.0785 233.8C65.8766 233.8 64.0915 235.674 64.0915 237.986Z" fill="#B7E5FF"/>
<path d="M19.1109 237.986C19.1109 240.298 20.8959 242.172 23.0978 242.172C25.2997 242.172 27.0847 240.298 27.0847 237.986C27.0847 235.674 25.2997 233.8 23.0978 233.8C20.8959 233.8 19.1109 235.674 19.1109 237.986Z" fill="#B7E5FF"/>
<path d="M535.937 285.21C535.937 287.783 537.924 289.87 540.376 289.87C542.827 289.87 544.814 287.783 544.814 285.21C544.814 282.636 542.827 280.549 540.376 280.549C537.924 280.549 535.937 282.636 535.937 285.21Z" fill="#B7E5FF"/>
<path d="M490.956 285.21C490.956 287.783 492.943 289.87 495.395 289.87C497.846 289.87 499.834 287.783 499.834 285.21C499.834 282.636 497.846 280.549 495.395 280.549C492.943 280.549 490.956 282.636 490.956 285.21Z" fill="#B7E5FF"/>
<path d="M445.975 285.21C445.975 287.783 447.963 289.87 450.414 289.87C452.866 289.87 454.853 287.783 454.853 285.21C454.853 282.636 452.866 280.549 450.414 280.549C447.963 280.549 445.975 282.636 445.975 285.21Z" fill="#B7E5FF"/>
<path d="M400.995 285.21C400.995 287.783 402.982 289.87 405.433 289.87C407.885 289.87 409.872 287.783 409.872 285.21C409.872 282.636 407.885 280.549 405.433 280.549C402.982 280.549 400.995 282.636 400.995 285.21Z" fill="#B7E5FF"/>
<path d="M356.014 285.21C356.014 287.783 358.001 289.87 360.453 289.87C362.904 289.87 364.892 287.783 364.892 285.21C364.892 282.636 362.904 280.549 360.453 280.549C358.001 280.549 356.014 282.636 356.014 285.21Z" fill="#B7E5FF"/>
<path d="M311.033 285.21C311.033 287.783 313.021 289.87 315.472 289.87C317.924 289.87 319.911 287.783 319.911 285.21C319.911 282.636 317.924 280.549 315.472 280.549C313.021 280.549 311.033 282.636 311.033 285.21Z" fill="#B7E5FF"/>
<path d="M266.053 285.21C266.053 287.783 268.04 289.87 270.491 289.87C272.943 289.87 274.93 287.783 274.93 285.21C274.93 282.636 272.943 280.549 270.491 280.549C268.04 280.549 266.053 282.636 266.053 285.21Z" fill="#B7E5FF"/>
<path d="M221.072 285.21C221.072 287.783 223.059 289.87 225.511 289.87C227.962 289.87 229.95 287.783 229.95 285.21C229.95 282.636 227.962 280.549 225.511 280.549C223.059 280.549 221.072 282.636 221.072 285.21Z" fill="#B7E5FF"/>
<path d="M176.091 285.21C176.091 287.783 178.079 289.87 180.53 289.87C182.982 289.87 184.969 287.783 184.969 285.21C184.969 282.636 182.982 280.549 180.53 280.549C178.079 280.549 176.091 282.636 176.091 285.21Z" fill="#B7E5FF"/>
<path d="M131.111 285.21C131.111 287.783 133.098 289.87 135.549 289.87C138.001 289.87 139.988 287.783 139.988 285.21C139.988 282.636 138.001 280.549 135.549 280.549C133.098 280.549 131.111 282.636 131.111 285.21Z" fill="#B7E5FF"/>
<path d="M86.13 285.21C86.13 287.783 88.1173 289.87 90.5688 289.87C93.0203 289.87 95.0076 287.783 95.0076 285.21C95.0076 282.636 93.0203 280.549 90.5688 280.549C88.1173 280.549 86.13 282.636 86.13 285.21Z" fill="#B7E5FF"/>
<path d="M41.1493 285.21C41.1493 287.783 43.1366 289.87 45.5881 289.87C48.0396 289.87 50.0269 287.783 50.0269 285.21C50.0269 282.636 48.0396 280.549 45.5881 280.549C43.1366 280.549 41.1493 282.636 41.1493 285.21Z" fill="#B7E5FF"/>
<path d="M-3.83131 285.21C-3.83131 287.783 -1.84401 289.87 0.607461 289.87C3.05893 289.87 5.04623 287.783 5.04623 285.21C5.04623 282.636 3.05893 280.549 0.607461 280.549C-1.84401 280.549 -3.83131 282.636 -3.83131 285.21Z" fill="#B7E5FF"/>
<path d="M558.002 332.433C558.002 335.253 560.18 337.539 562.866 337.539C565.552 337.539 567.73 335.253 567.73 332.433C567.73 329.613 565.552 327.326 562.866 327.326C560.18 327.326 558.002 329.613 558.002 332.433Z" fill="#B7E5FF"/>
<path d="M513.021 332.433C513.021 335.253 515.199 337.539 517.885 337.539C520.572 337.539 522.749 335.253 522.749 332.433C522.749 329.613 520.572 327.326 517.885 327.326C515.199 327.326 513.021 329.613 513.021 332.433Z" fill="#B7E5FF"/>
<path d="M468.04 332.433C468.04 335.253 470.218 337.539 472.905 337.539C475.591 337.539 477.769 335.253 477.769 332.433C477.769 329.613 475.591 327.326 472.905 327.326C470.218 327.326 468.04 329.613 468.04 332.433Z" fill="#B7E5FF"/>
<path d="M423.06 332.433C423.06 335.253 425.238 337.539 427.924 337.539C430.61 337.539 432.788 335.253 432.788 332.433C432.788 329.613 430.61 327.326 427.924 327.326C425.238 327.326 423.06 329.613 423.06 332.433Z" fill="#B7E5FF"/>
<path d="M378.079 332.433C378.079 335.253 380.257 337.539 382.943 337.539C385.63 337.539 387.807 335.253 387.807 332.433C387.807 329.613 385.63 327.326 382.943 327.326C380.257 327.326 378.079 329.613 378.079 332.433Z" fill="#B7E5FF"/>
<path d="M333.098 332.433C333.098 335.253 335.276 337.539 337.962 337.539C340.649 337.539 342.827 335.253 342.827 332.433C342.827 329.613 340.649 327.326 337.962 327.326C335.276 327.326 333.098 329.613 333.098 332.433Z" fill="#B7E5FF"/>
<path d="M288.118 332.433C288.118 335.253 290.295 337.539 292.982 337.539C295.668 337.539 297.846 335.253 297.846 332.433C297.846 329.613 295.668 327.326 292.982 327.326C290.295 327.326 288.118 329.613 288.118 332.433Z" fill="#B7E5FF"/>
<path d="M243.137 332.433C243.137 335.253 245.315 337.539 248.001 337.539C250.687 337.539 252.865 335.253 252.865 332.433C252.865 329.613 250.687 327.326 248.001 327.326C245.315 327.326 243.137 329.613 243.137 332.433Z" fill="#B7E5FF"/>
<path d="M198.156 332.433C198.156 335.253 200.334 337.539 203.02 337.539C205.707 337.539 207.885 335.253 207.885 332.433C207.885 329.613 205.707 327.326 203.02 327.326C200.334 327.326 198.156 329.613 198.156 332.433Z" fill="#B7E5FF"/>
<path d="M153.176 332.433C153.176 335.253 155.353 337.539 158.04 337.539C160.726 337.539 162.904 335.253 162.904 332.433C162.904 329.613 160.726 327.326 158.04 327.326C155.353 327.326 153.176 329.613 153.176 332.433Z" fill="#B7E5FF"/>
<path d="M108.195 332.433C108.195 335.253 110.373 337.539 113.059 337.539C115.745 337.539 117.923 335.253 117.923 332.433C117.923 329.613 115.745 327.326 113.059 327.326C110.373 327.326 108.195 329.613 108.195 332.433Z" fill="#B7E5FF"/>
<path d="M63.2144 332.433C63.2144 335.253 65.3921 337.539 68.0785 337.539C70.7648 337.539 72.9425 335.253 72.9425 332.433C72.9425 329.613 70.7648 327.326 68.0785 327.326C65.3921 327.326 63.2144 329.613 63.2144 332.433Z" fill="#B7E5FF"/>
<path d="M18.2337 332.433C18.2337 335.253 20.4114 337.539 23.0978 337.539C25.7841 337.539 27.9618 335.253 27.9618 332.433C27.9618 329.613 25.7841 327.326 23.0978 327.326C20.4114 327.326 18.2337 329.613 18.2337 332.433Z" fill="#B7E5FF"/>
<path d="M535.06 379.656C535.06 382.738 537.44 385.237 540.376 385.237C543.311 385.237 545.691 382.738 545.691 379.656C545.691 376.574 543.311 374.075 540.376 374.075C537.44 374.075 535.06 376.574 535.06 379.656Z" fill="#B7E5FF"/>
<path d="M490.079 379.656C490.079 382.738 492.459 385.237 495.395 385.237C498.331 385.237 500.711 382.738 500.711 379.656C500.711 376.574 498.331 374.075 495.395 374.075C492.459 374.075 490.079 376.574 490.079 379.656Z" fill="#B7E5FF"/>
<path d="M445.098 379.656C445.098 382.738 447.478 385.237 450.414 385.237C453.35 385.237 455.73 382.738 455.73 379.656C455.73 376.574 453.35 374.075 450.414 374.075C447.478 374.075 445.098 376.574 445.098 379.656Z" fill="#B7E5FF"/>
<path d="M400.118 379.656C400.118 382.738 402.498 385.237 405.433 385.237C408.369 385.237 410.749 382.738 410.749 379.656C410.749 376.574 408.369 374.075 405.433 374.075C402.498 374.075 400.118 376.574 400.118 379.656Z" fill="#B7E5FF"/>
<path d="M355.137 379.656C355.137 382.738 357.517 385.237 360.453 385.237C363.389 385.237 365.769 382.738 365.769 379.656C365.769 376.574 363.389 374.075 360.453 374.075C357.517 374.075 355.137 376.574 355.137 379.656Z" fill="#B7E5FF"/>
<path d="M310.156 379.656C310.156 382.738 312.536 385.237 315.472 385.237C318.408 385.237 320.788 382.738 320.788 379.656C320.788 376.574 318.408 374.075 315.472 374.075C312.536 374.075 310.156 376.574 310.156 379.656Z" fill="#B7E5FF"/>
<path d="M265.176 379.656C265.176 382.738 267.556 385.237 270.491 385.237C273.427 385.237 275.807 382.738 275.807 379.656C275.807 376.574 273.427 374.075 270.491 374.075C267.556 374.075 265.176 376.574 265.176 379.656Z" fill="#B7E5FF"/>
<path d="M220.195 379.656C220.195 382.738 222.575 385.237 225.511 385.237C228.447 385.237 230.827 382.738 230.827 379.656C230.827 376.574 228.447 374.075 225.511 374.075C222.575 374.075 220.195 376.574 220.195 379.656Z" fill="#B7E5FF"/>
<path d="M175.214 379.656C175.214 382.738 177.594 385.237 180.53 385.237C183.466 385.237 185.846 382.738 185.846 379.656C185.846 376.574 183.466 374.075 180.53 374.075C177.594 374.075 175.214 376.574 175.214 379.656Z" fill="#B7E5FF"/>
<path d="M130.234 379.656C130.234 382.738 132.614 385.237 135.549 385.237C138.485 385.237 140.865 382.738 140.865 379.656C140.865 376.574 138.485 374.075 135.549 374.075C132.614 374.075 130.234 376.574 130.234 379.656Z" fill="#B7E5FF"/>
<path d="M85.2529 379.656C85.2529 382.738 87.6329 385.237 90.5688 385.237C93.5047 385.237 95.8847 382.738 95.8847 379.656C95.8847 376.574 93.5047 374.075 90.5688 374.075C87.6329 374.075 85.2529 376.574 85.2529 379.656Z" fill="#B7E5FF"/>
<path d="M40.2722 379.656C40.2722 382.738 42.6522 385.237 45.5881 385.237C48.524 385.237 50.904 382.738 50.904 379.656C50.904 376.574 48.524 374.075 45.5881 374.075C42.6522 374.075 40.2722 376.574 40.2722 379.656Z" fill="#B7E5FF"/>
<path d="M-4.70844 379.656C-4.70844 382.738 -2.32843 385.237 0.607461 385.237C3.54335 385.237 5.92336 382.738 5.92336 379.656C5.92336 376.574 3.54335 374.075 0.607461 374.075C-2.32843 374.075 -4.70844 376.574 -4.70844 379.656Z" fill="#B7E5FF"/>
<path d="M557.098 426.879C557.098 430.224 559.68 432.935 562.866 432.935C566.051 432.935 568.634 430.224 568.634 426.879C568.634 423.535 566.051 420.824 562.866 420.824C559.68 420.824 557.098 423.535 557.098 426.879Z" fill="#B7E5FF"/>
<path d="M512.117 426.879C512.117 430.224 514.7 432.935 517.885 432.935C521.071 432.935 523.653 430.224 523.653 426.879C523.653 423.535 521.071 420.824 517.885 420.824C514.7 420.824 512.117 423.535 512.117 426.879Z" fill="#B7E5FF"/>
<path d="M467.137 426.879C467.137 430.224 469.719 432.935 472.905 432.935C476.09 432.935 478.672 430.224 478.672 426.879C478.672 423.535 476.09 420.824 472.905 420.824C469.719 420.824 467.137 423.535 467.137 426.879Z" fill="#B7E5FF"/>
<path d="M422.156 426.879C422.156 430.224 424.738 432.935 427.924 432.935C431.109 432.935 433.692 430.224 433.692 426.879C433.692 423.535 431.109 420.824 427.924 420.824C424.738 420.824 422.156 423.535 422.156 426.879Z" fill="#B7E5FF"/>
<path d="M377.175 426.879C377.175 430.224 379.758 432.935 382.943 432.935C386.129 432.935 388.711 430.224 388.711 426.879C388.711 423.535 386.129 420.824 382.943 420.824C379.758 420.824 377.175 423.535 377.175 426.879Z" fill="#B7E5FF"/>
<path d="M332.195 426.879C332.195 430.224 334.777 432.935 337.962 432.935C341.148 432.935 343.73 430.224 343.73 426.879C343.73 423.535 341.148 420.824 337.962 420.824C334.777 420.824 332.195 423.535 332.195 426.879Z" fill="#B7E5FF"/>
<path d="M287.214 426.879C287.214 430.224 289.796 432.935 292.982 432.935C296.167 432.935 298.75 430.224 298.75 426.879C298.75 423.535 296.167 420.824 292.982 420.824C289.796 420.824 287.214 423.535 287.214 426.879Z" fill="#B7E5FF"/>
<path d="M242.233 426.879C242.233 430.224 244.816 432.935 248.001 432.935C251.187 432.935 253.769 430.224 253.769 426.879C253.769 423.535 251.187 420.824 248.001 420.824C244.816 420.824 242.233 423.535 242.233 426.879Z" fill="#B7E5FF"/>
<path d="M197.253 426.879C197.253 430.224 199.835 432.935 203.02 432.935C206.206 432.935 208.788 430.224 208.788 426.879C208.788 423.535 206.206 420.824 203.02 420.824C199.835 420.824 197.253 423.535 197.253 426.879Z" fill="#B7E5FF"/>
<path d="M152.272 426.879C152.272 430.224 154.854 432.935 158.04 432.935C161.225 432.935 163.808 430.224 163.808 426.879C163.808 423.535 161.225 420.824 158.04 420.824C154.854 420.824 152.272 423.535 152.272 426.879Z" fill="#B7E5FF"/>
<path d="M107.291 426.879C107.291 430.224 109.874 432.935 113.059 432.935C116.245 432.935 118.827 430.224 118.827 426.879C118.827 423.535 116.245 420.824 113.059 420.824C109.874 420.824 107.291 423.535 107.291 426.879Z" fill="#B7E5FF"/>
<path d="M62.3107 426.879C62.3107 430.224 64.893 432.935 68.0785 432.935C71.2639 432.935 73.8462 430.224 73.8462 426.879C73.8462 423.535 71.2639 420.824 68.0785 420.824C64.893 420.824 62.3107 423.535 62.3107 426.879Z" fill="#B7E5FF"/>
<path d="M17.33 426.879C17.33 430.224 19.9123 432.935 23.0978 432.935C26.2832 432.935 28.8655 430.224 28.8655 426.879C28.8655 423.535 26.2832 420.824 23.0978 420.824C19.9123 420.824 17.33 423.535 17.33 426.879Z" fill="#B7E5FF"/>
<path d="M534.183 474.103C534.183 477.694 536.955 480.605 540.376 480.605C543.796 480.605 546.569 477.694 546.569 474.103C546.569 470.512 543.796 467.601 540.376 467.601C536.955 467.601 534.183 470.512 534.183 474.103Z" fill="#B7E5FF"/>
<path d="M489.202 474.103C489.202 477.694 491.975 480.605 495.395 480.605C498.815 480.605 501.588 477.694 501.588 474.103C501.588 470.512 498.815 467.601 495.395 467.601C491.975 467.601 489.202 470.512 489.202 474.103Z" fill="#B7E5FF"/>
<path d="M444.221 474.103C444.221 477.694 446.994 480.605 450.414 480.605C453.834 480.605 456.607 477.694 456.607 474.103C456.607 470.512 453.834 467.601 450.414 467.601C446.994 467.601 444.221 470.512 444.221 474.103Z" fill="#B7E5FF"/>
<path d="M399.24 474.103C399.24 477.694 402.013 480.605 405.433 480.605C408.854 480.605 411.627 477.694 411.627 474.103C411.627 470.512 408.854 467.601 405.433 467.601C402.013 467.601 399.24 470.512 399.24 474.103Z" fill="#B7E5FF"/>
<path d="M354.26 474.103C354.26 477.694 357.033 480.605 360.453 480.605C363.873 480.605 366.646 477.694 366.646 474.103C366.646 470.512 363.873 467.601 360.453 467.601C357.033 467.601 354.26 470.512 354.26 474.103Z" fill="#B7E5FF"/>
<path d="M309.279 474.103C309.279 477.694 312.052 480.605 315.472 480.605C318.892 480.605 321.665 477.694 321.665 474.103C321.665 470.512 318.892 467.601 315.472 467.601C312.052 467.601 309.279 470.512 309.279 474.103Z" fill="#B7E5FF"/>
<path d="M264.298 474.103C264.298 477.694 267.071 480.605 270.491 480.605C273.912 480.605 276.684 477.694 276.684 474.103C276.684 470.512 273.912 467.601 270.491 467.601C267.071 467.601 264.298 470.512 264.298 474.103Z" fill="#B7E5FF"/>
<path d="M219.318 474.103C219.318 477.694 222.091 480.605 225.511 480.605C228.931 480.605 231.704 477.694 231.704 474.103C231.704 470.512 228.931 467.601 225.511 467.601C222.091 467.601 219.318 470.512 219.318 474.103Z" fill="#B7E5FF"/>
<path d="M174.337 474.103C174.337 477.694 177.11 480.605 180.53 480.605C183.95 480.605 186.723 477.694 186.723 474.103C186.723 470.512 183.95 467.601 180.53 467.601C177.11 467.601 174.337 470.512 174.337 474.103Z" fill="#B7E5FF"/>
<path d="M129.356 474.103C129.356 477.694 132.129 480.605 135.549 480.605C138.97 480.605 141.742 477.694 141.742 474.103C141.742 470.512 138.97 467.601 135.549 467.601C132.129 467.601 129.356 470.512 129.356 474.103Z" fill="#B7E5FF"/>
<path d="M84.3758 474.103C84.3758 477.694 87.1485 480.605 90.5688 480.605C93.9891 480.605 96.7618 477.694 96.7618 474.103C96.7618 470.512 93.9891 467.601 90.5688 467.601C87.1485 467.601 84.3758 470.512 84.3758 474.103Z" fill="#B7E5FF"/>
<path d="M39.3951 474.103C39.3951 477.694 42.1678 480.605 45.5881 480.605C49.0084 480.605 51.7811 477.694 51.7811 474.103C51.7811 470.512 49.0084 467.601 45.5881 467.601C42.1678 467.601 39.3951 470.512 39.3951 474.103Z" fill="#B7E5FF"/>
<path d="M-5.58556 474.103C-5.58556 477.694 -2.81285 480.605 0.607461 480.605C4.02777 480.605 6.80049 477.694 6.80049 474.103C6.80049 470.512 4.02777 467.601 0.607461 467.601C-2.81285 467.601 -5.58556 470.512 -5.58556 474.103Z" fill="#B7E5FF"/>
<path d="M556.221 521.326C556.221 525.179 559.196 528.302 562.866 528.302C566.536 528.302 569.511 525.179 569.511 521.326C569.511 517.473 566.536 514.35 562.866 514.35C559.196 514.35 556.221 517.473 556.221 521.326Z" fill="#B7E5FF"/>
<path d="M511.24 521.326C511.24 525.179 514.215 528.302 517.885 528.302C521.555 528.302 524.53 525.179 524.53 521.326C524.53 517.473 521.555 514.35 517.885 514.35C514.215 514.35 511.24 517.473 511.24 521.326Z" fill="#B7E5FF"/>
<path d="M466.26 521.326C466.26 525.179 469.235 528.302 472.905 528.302C476.574 528.302 479.549 525.179 479.549 521.326C479.549 517.473 476.574 514.35 472.905 514.35C469.235 514.35 466.26 517.473 466.26 521.326Z" fill="#B7E5FF"/>
<path d="M421.279 521.326C421.279 525.179 424.254 528.302 427.924 528.302C431.594 528.302 434.569 525.179 434.569 521.326C434.569 517.473 431.594 514.35 427.924 514.35C424.254 514.35 421.279 517.473 421.279 521.326Z" fill="#B7E5FF"/>
<path d="M376.298 521.326C376.298 525.179 379.273 528.302 382.943 528.302C386.613 528.302 389.588 525.179 389.588 521.326C389.588 517.473 386.613 514.35 382.943 514.35C379.273 514.35 376.298 517.473 376.298 521.326Z" fill="#B7E5FF"/>
<path d="M331.318 521.326C331.318 525.179 334.293 528.302 337.962 528.302C341.632 528.302 344.607 525.179 344.607 521.326C344.607 517.473 341.632 514.35 337.962 514.35C334.293 514.35 331.318 517.473 331.318 521.326Z" fill="#B7E5FF"/>
<path d="M286.337 521.326C286.337 525.179 289.312 528.302 292.982 528.302C296.652 528.302 299.627 525.179 299.627 521.326C299.627 517.473 296.652 514.35 292.982 514.35C289.312 514.35 286.337 517.473 286.337 521.326Z" fill="#B7E5FF"/>
<path d="M241.356 521.326C241.356 525.179 244.331 528.302 248.001 528.302C251.671 528.302 254.646 525.179 254.646 521.326C254.646 517.473 251.671 514.35 248.001 514.35C244.331 514.35 241.356 517.473 241.356 521.326Z" fill="#B7E5FF"/>
<path d="M196.376 521.326C196.376 525.179 199.351 528.302 203.02 528.302C206.69 528.302 209.665 525.179 209.665 521.326C209.665 517.473 206.69 514.35 203.02 514.35C199.351 514.35 196.376 517.473 196.376 521.326Z" fill="#B7E5FF"/>
<path d="M151.395 521.326C151.395 525.179 154.37 528.302 158.04 528.302C161.71 528.302 164.685 525.179 164.685 521.326C164.685 517.473 161.71 514.35 158.04 514.35C154.37 514.35 151.395 517.473 151.395 521.326Z" fill="#B7E5FF"/>
<path d="M106.414 521.326C106.414 525.179 109.389 528.302 113.059 528.302C116.729 528.302 119.704 525.179 119.704 521.326C119.704 517.473 116.729 514.35 113.059 514.35C109.389 514.35 106.414 517.473 106.414 521.326Z" fill="#B7E5FF"/>
<path d="M61.4336 521.326C61.4336 525.179 64.4086 528.302 68.0785 528.302C71.7483 528.302 74.7233 525.179 74.7233 521.326C74.7233 517.473 71.7483 514.35 68.0785 514.35C64.4086 514.35 61.4336 517.473 61.4336 521.326Z" fill="#B7E5FF"/>
<path d="M16.4529 521.326C16.4529 525.179 19.4279 528.302 23.0978 528.302C26.7676 528.302 29.7427 525.179 29.7427 521.326C29.7427 517.473 26.7676 514.35 23.0978 514.35C19.4279 514.35 16.4529 517.473 16.4529 521.326Z" fill="#B7E5FF"/>
<path d="M533.279 568.549C533.279 572.664 536.456 576 540.376 576C544.295 576 547.472 572.664 547.472 568.549C547.472 564.435 544.295 561.099 540.376 561.099C536.456 561.099 533.279 564.435 533.279 568.549Z" fill="#B7E5FF"/>
<path d="M488.298 568.549C488.298 572.664 491.475 576 495.395 576C499.314 576 502.492 572.664 502.492 568.549C502.492 564.435 499.314 561.099 495.395 561.099C491.475 561.099 488.298 564.435 488.298 568.549Z" fill="#B7E5FF"/>
<path d="M443.317 568.549C443.317 572.664 446.495 576 450.414 576C454.334 576 457.511 572.664 457.511 568.549C457.511 564.435 454.334 561.099 450.414 561.099C446.495 561.099 443.317 564.435 443.317 568.549Z" fill="#B7E5FF"/>
<path d="M398.337 568.549C398.337 572.664 401.514 576 405.433 576C409.353 576 412.53 572.664 412.53 568.549C412.53 564.435 409.353 561.099 405.433 561.099C401.514 561.099 398.337 564.435 398.337 568.549Z" fill="#B7E5FF"/>
<path d="M353.356 568.549C353.356 572.664 356.533 576 360.453 576C364.372 576 367.55 572.664 367.55 568.549C367.55 564.435 364.372 561.099 360.453 561.099C356.533 561.099 353.356 564.435 353.356 568.549Z" fill="#B7E5FF"/>
<path d="M308.375 568.549C308.375 572.664 311.553 576 315.472 576C319.392 576 322.569 572.664 322.569 568.549C322.569 564.435 319.392 561.099 315.472 561.099C311.553 561.099 308.375 564.435 308.375 568.549Z" fill="#B7E5FF"/>
<path d="M263.395 568.549C263.395 572.664 266.572 576 270.491 576C274.411 576 277.588 572.664 277.588 568.549C277.588 564.435 274.411 561.099 270.491 561.099C266.572 561.099 263.395 564.435 263.395 568.549Z" fill="#B7E5FF"/>
<path d="M218.414 568.549C218.414 572.664 221.591 576 225.511 576C229.43 576 232.608 572.664 232.608 568.549C232.608 564.435 229.43 561.099 225.511 561.099C221.591 561.099 218.414 564.435 218.414 568.549Z" fill="#B7E5FF"/>
<path d="M173.433 568.549C173.433 572.664 176.611 576 180.53 576C184.45 576 187.627 572.664 187.627 568.549C187.627 564.435 184.45 561.099 180.53 561.099C176.611 561.099 173.433 564.435 173.433 568.549Z" fill="#B7E5FF"/>
<path d="M128.453 568.549C128.453 572.664 131.63 576 135.549 576C139.469 576 142.646 572.664 142.646 568.549C142.646 564.435 139.469 561.099 135.549 561.099C131.63 561.099 128.453 564.435 128.453 568.549Z" fill="#B7E5FF"/>
<path d="M83.4721 568.549C83.4721 572.664 86.6494 576 90.5688 576C94.4882 576 97.6655 572.664 97.6655 568.549C97.6655 564.435 94.4882 561.099 90.5688 561.099C86.6494 561.099 83.4721 564.435 83.4721 568.549Z" fill="#B7E5FF"/>
<path d="M38.4914 568.549C38.4914 572.664 41.6687 576 45.5881 576C49.5075 576 52.6849 572.664 52.6849 568.549C52.6849 564.435 49.5075 561.099 45.5881 561.099C41.6687 561.099 38.4914 564.435 38.4914 568.549Z" fill="#B7E5FF"/>
<path d="M-6.48926 568.549C-6.48926 572.664 -3.31195 576 0.607461 576C4.52687 576 7.70418 572.664 7.70418 568.549C7.70418 564.435 4.52687 561.099 0.607461 561.099C-3.31195 561.099 -6.48926 564.435 -6.48926 568.549Z" fill="#B7E5FF"/>
</svg>
