<svg width="112" height="38" viewBox="0 0 112 38" fill="none" xmlns="http://www.w3.org/2000/svg">
<path d="M6.17095 26.5296C2.76286 26.5296 0 23.158 0 18.9996C0 14.8413 2.76286 11.4697 6.17095 11.4697V26.5296Z" fill="#8A21C4"/>
<path d="M10.1348 38V0C10.1348 0 24.1103 0.823069 28.675 6.22756C28.675 15.3838 29.1521 29.6668 10.1348 38Z" fill="#25A7FF"/>
<path d="M40.8197 26.2615V7.11464H37.0986V29.7164H50.3183V26.2615H40.8197Z" fill="#FAFAFA"/>
<path d="M53.7504 9.60083H57.4715V5.8877H53.7504V9.60083ZM53.8157 29.7164H57.4389V12.2808H53.8157V29.7164Z" fill="#FAFAFA"/>
<path d="M66.6135 26.423L75.1002 12.8296V12.2808H61.6194V15.5741H69.5186L60.9666 29.2643V29.7164H75.1002V26.423H66.6135Z" fill="#FAFAFA"/>
<path d="M82.8282 26.423L91.3149 12.8296V12.2808H77.8341V15.5741H85.7333L77.1813 29.2643V29.7164H91.3149V26.423H82.8282Z" fill="#FAFAFA"/>
<path d="M107.791 12.2808L102.536 24.4534L96.9212 12.2808H93.0043L100.675 28.4571L100.283 29.2966C98.9776 32.0734 98.2595 32.7514 95.942 32.7514H94.4079V35.9803H96.2031C99.7937 35.9803 101.556 34.4304 103.547 30.0392L111.642 12.2808H107.791Z" fill="#FAFAFA"/>
</svg>
