<svg width="159" height="167" viewBox="0 0 159 167" fill="none" xmlns="http://www.w3.org/2000/svg">
<g opacity="0.3">
<path d="M3.18615 156.464C3.83259 155.818 3.83259 154.77 3.18615 154.123C2.53971 153.477 1.49161 153.477 0.845172 154.123C0.19873 154.77 0.198731 155.818 0.845173 156.464C1.49162 157.111 2.53971 157.111 3.18615 156.464Z" fill="url(#paint0_linear_1858_18761)"/>
<path d="M25.3378 178.616C26.125 177.829 26.125 176.552 25.3378 175.765C24.5507 174.978 23.2744 174.978 22.4872 175.765C21.7001 176.552 21.7001 177.829 22.4872 178.616C23.2744 179.403 24.5507 179.403 25.3378 178.616Z" fill="url(#paint1_linear_1858_18761)"/>
<path d="M47.2347 200.513C48.0218 199.726 48.0218 198.449 47.2347 197.662C46.4475 196.875 45.1713 196.875 44.3841 197.662C43.5969 198.449 43.5969 199.726 44.3841 200.513C45.1713 201.3 46.4475 201.3 47.2347 200.513Z" fill="url(#paint2_linear_1858_18761)"/>
<path d="M68.8767 222.155C69.5232 221.508 69.5232 220.46 68.8767 219.814C68.2303 219.167 67.1822 219.167 66.5358 219.814C65.8893 220.46 65.8893 221.508 66.5358 222.155C67.1822 222.801 68.2303 222.801 68.8767 222.155Z" fill="url(#paint3_linear_1858_18761)"/>
<path d="M3.44095 112.925C4.22811 112.138 4.22811 110.862 3.44095 110.075C2.65378 109.288 1.37754 109.288 0.590373 110.075C-0.196791 110.862 -0.196791 112.138 0.590373 112.925C1.37754 113.712 2.65378 113.712 3.44095 112.925Z" fill="url(#paint4_linear_1858_18761)"/>
<path d="M25.8554 135.34C26.9284 134.267 26.9284 132.527 25.8554 131.454C24.7824 130.381 23.0427 130.381 21.9697 131.454C20.8967 132.527 20.8967 134.267 21.9697 135.34C23.0427 136.413 24.7824 136.413 25.8554 135.34Z" fill="url(#paint5_linear_1858_18761)"/>
<path d="M48.2698 157.754C49.6287 156.395 49.6287 154.192 48.2698 152.833C46.911 151.474 44.7078 151.474 43.349 152.833C41.9901 154.192 41.9901 156.395 43.349 157.754C44.7078 159.113 46.911 159.113 48.2698 157.754Z" fill="url(#paint6_linear_1858_18761)"/>
<path d="M70.1667 179.651C71.5255 178.292 71.5255 176.089 70.1667 174.73C68.8078 173.371 66.6047 173.371 65.2459 174.73C63.887 176.089 63.887 178.292 65.2459 179.651C66.6047 181.01 68.8078 181.01 70.1667 179.651Z" fill="url(#paint7_linear_1858_18761)"/>
<path d="M91.546 201.03C92.619 199.957 92.619 198.218 91.546 197.145C90.473 196.072 88.7333 196.072 87.6603 197.145C86.5873 198.218 86.5873 199.957 87.6603 201.03C88.7333 202.103 90.473 202.103 91.546 201.03Z" fill="url(#paint8_linear_1858_18761)"/>
<path d="M112.925 222.41C113.712 221.622 113.712 220.346 112.925 219.559C112.138 218.772 110.862 218.772 110.075 219.559C109.288 220.346 109.288 221.622 110.075 222.41C110.862 223.197 112.138 223.197 112.925 222.41Z" fill="url(#paint9_linear_1858_18761)"/>
<path d="M3.18615 68.8767C3.83259 68.2303 3.83259 67.1822 3.18615 66.5358C2.53971 65.8893 1.49162 65.8893 0.845173 66.5358C0.198731 67.1822 0.19873 68.2303 0.845172 68.8767C1.49161 69.5232 2.53971 69.5232 3.18615 68.8767Z" fill="url(#paint10_linear_1858_18761)"/>
<path d="M25.8554 91.546C26.9284 90.473 26.9284 88.7333 25.8554 87.6603C24.7824 86.5873 23.0427 86.5873 21.9697 87.6603C20.8967 88.7333 20.8967 90.473 21.9697 91.546C23.0427 92.619 24.7824 92.619 25.8554 91.546Z" fill="url(#paint11_linear_1858_18761)"/>
<path d="M48.5246 114.215C50.0242 112.716 50.0242 110.284 48.5246 108.785C47.025 107.285 44.5938 107.285 43.0942 108.785C41.5946 110.284 41.5946 112.716 43.0942 114.215C44.5938 115.715 47.025 115.715 48.5246 114.215Z" fill="url(#paint12_linear_1858_18761)"/>
<path d="M71.1938 136.884C73.12 134.958 73.12 131.835 71.1938 129.909C69.2677 127.983 66.1448 127.983 64.2187 129.909C62.2926 131.835 62.2926 134.958 64.2187 136.884C66.1448 138.811 69.2677 138.811 71.1938 136.884Z" fill="url(#paint13_linear_1858_18761)"/>
<path d="M93.0907 158.781C95.0168 156.855 95.0168 153.732 93.0907 151.806C91.1646 149.88 88.0417 149.88 86.1156 151.806C84.1894 153.732 84.1894 156.855 86.1156 158.781C88.0417 160.707 91.1646 160.707 93.0907 158.781Z" fill="url(#paint14_linear_1858_18761)"/>
<path d="M114.215 179.906C115.715 178.406 115.715 175.975 114.215 174.475C112.716 172.976 110.284 172.976 108.785 174.475C107.285 175.975 107.285 178.406 108.785 179.906C110.284 181.405 112.716 181.405 114.215 179.906Z" fill="url(#paint15_linear_1858_18761)"/>
<path d="M135.34 201.03C136.413 199.957 136.413 198.218 135.34 197.145C134.267 196.072 132.527 196.072 131.454 197.145C130.381 198.218 130.381 199.957 131.454 201.03C132.527 202.103 134.267 202.103 135.34 201.03Z" fill="url(#paint16_linear_1858_18761)"/>
<path d="M156.464 222.155C157.111 221.508 157.111 220.46 156.464 219.814C155.818 219.167 154.77 219.167 154.123 219.814C153.477 220.46 153.477 221.508 154.123 222.155C154.77 222.801 155.818 222.801 156.464 222.155Z" fill="url(#paint17_linear_1858_18761)"/>
<path d="M25.3378 47.2347C26.125 46.4475 26.125 45.1713 25.3378 44.3841C24.5507 43.5969 23.2744 43.5969 22.4872 44.3841C21.7001 45.1713 21.7001 46.4475 22.4872 47.2347C23.2744 48.0218 24.5507 48.0218 25.3378 47.2347Z" fill="url(#paint18_linear_1858_18761)"/>
<path d="M48.2698 70.1667C49.6287 68.8078 49.6287 66.6047 48.2698 65.2459C46.911 63.887 44.7078 63.887 43.349 65.2458C41.9901 66.6047 41.9901 68.8078 43.349 70.1667C44.7078 71.5255 46.911 71.5255 48.2698 70.1667Z" fill="url(#paint19_linear_1858_18761)"/>
<path d="M71.1938 93.0907C73.12 91.1646 73.12 88.0417 71.1938 86.1156C69.2677 84.1894 66.1448 84.1894 64.2187 86.1156C62.2926 88.0417 62.2926 91.1646 64.2187 93.0907C66.1448 95.0168 69.2677 95.0168 71.1938 93.0907Z" fill="url(#paint20_linear_1858_18761)"/>
<path d="M94.1179 116.015C96.6113 113.521 96.6113 109.479 94.1179 106.985C91.6245 104.492 87.5818 104.492 85.0884 106.985C82.595 109.479 82.595 113.521 85.0884 116.015C87.5818 118.508 91.6245 118.508 94.1179 116.015Z" fill="url(#paint21_linear_1858_18761)"/>
<path d="M116.015 137.912C118.508 135.418 118.508 131.376 116.015 128.882C113.521 126.389 109.479 126.389 106.985 128.882C104.492 131.376 104.492 135.418 106.985 137.912C109.479 140.405 113.521 140.405 116.015 137.912Z" fill="url(#paint22_linear_1858_18761)"/>
<path d="M136.884 158.781C138.811 156.855 138.811 153.732 136.884 151.806C134.958 149.88 131.835 149.88 129.909 151.806C127.983 153.732 127.983 156.855 129.909 158.781C131.835 160.707 134.958 160.707 136.884 158.781Z" fill="url(#paint23_linear_1858_18761)"/>
<path d="M157.754 179.651C159.113 178.292 159.113 176.089 157.754 174.73C156.395 173.371 154.192 173.371 152.833 174.73C151.474 176.089 151.474 178.292 152.833 179.651C154.192 181.01 156.395 181.01 157.754 179.651Z" fill="url(#paint24_linear_1858_18761)"/>
<path d="M178.616 200.513C179.403 199.726 179.403 198.449 178.616 197.662C177.829 196.875 176.552 196.875 175.765 197.662C174.978 198.449 174.978 199.726 175.765 200.513C176.552 201.3 177.829 201.3 178.616 200.513Z" fill="url(#paint25_linear_1858_18761)"/>
<path d="M47.2347 25.3378C48.0218 24.5506 48.0218 23.2744 47.2347 22.4872C46.4475 21.7001 45.1713 21.7001 44.3841 22.4872C43.5969 23.2744 43.5969 24.5506 44.3841 25.3378C45.1713 26.125 46.4475 26.125 47.2347 25.3378Z" fill="url(#paint26_linear_1858_18761)"/>
<path d="M70.1667 48.2698C71.5255 46.911 71.5255 44.7078 70.1667 43.349C68.8078 41.9901 66.6047 41.9901 65.2459 43.349C63.887 44.7078 63.887 46.911 65.2459 48.2698C66.6047 49.6286 68.8078 49.6286 70.1667 48.2698Z" fill="url(#paint27_linear_1858_18761)"/>
<path d="M93.0907 71.1938C95.0168 69.2677 95.0168 66.1448 93.0907 64.2187C91.1646 62.2925 88.0417 62.2926 86.1156 64.2187C84.1894 66.1448 84.1894 69.2677 86.1156 71.1938C88.0417 73.12 91.1646 73.12 93.0907 71.1938Z" fill="url(#paint28_linear_1858_18761)"/>
<path d="M116.015 94.1179C118.508 91.6244 118.508 87.5818 116.015 85.0884C113.521 82.595 109.479 82.595 106.985 85.0884C104.492 87.5818 104.492 91.6244 106.985 94.1179C109.479 96.6113 113.521 96.6113 116.015 94.1179Z" fill="url(#paint29_linear_1858_18761)"/>
<path d="M137.912 116.015C140.405 113.521 140.405 109.479 137.912 106.985C135.418 104.492 131.376 104.492 128.882 106.985C126.389 109.479 126.389 113.521 128.882 116.015C131.376 118.508 135.418 118.508 137.912 116.015Z" fill="url(#paint30_linear_1858_18761)"/>
<path d="M158.781 136.884C160.707 134.958 160.707 131.835 158.781 129.909C156.855 127.983 153.732 127.983 151.806 129.909C149.88 131.835 149.88 134.958 151.806 136.884C153.732 138.811 156.855 138.811 158.781 136.884Z" fill="url(#paint31_linear_1858_18761)"/>
<path d="M179.651 157.754C181.01 156.395 181.01 154.192 179.651 152.833C178.292 151.474 176.089 151.474 174.73 152.833C173.371 154.192 173.371 156.395 174.73 157.754C176.089 159.113 178.292 159.113 179.651 157.754Z" fill="url(#paint32_linear_1858_18761)"/>
<path d="M200.513 178.616C201.3 177.829 201.3 176.552 200.513 175.765C199.726 174.978 198.449 174.978 197.662 175.765C196.875 176.552 196.875 177.829 197.662 178.616C198.449 179.403 199.726 179.403 200.513 178.616Z" fill="url(#paint33_linear_1858_18761)"/>
<path d="M68.8767 3.18614C69.5232 2.5397 69.5232 1.49161 68.8767 0.845169C68.2303 0.198727 67.1822 0.198728 66.5358 0.84517C65.8893 1.49161 65.8893 2.5397 66.5358 3.18615C67.1822 3.83259 68.2303 3.83259 68.8767 3.18614Z" fill="url(#paint34_linear_1858_18761)"/>
<path d="M91.546 25.8554C92.619 24.7824 92.619 23.0427 91.546 21.9697C90.473 20.8967 88.7333 20.8967 87.6603 21.9697C86.5873 23.0427 86.5873 24.7824 87.6603 25.8554C88.7333 26.9284 90.473 26.9284 91.546 25.8554Z" fill="url(#paint35_linear_1858_18761)"/>
<path d="M114.215 48.5246C115.715 47.025 115.715 44.5938 114.215 43.0942C112.716 41.5946 110.284 41.5946 108.785 43.0942C107.285 44.5938 107.285 47.025 108.785 48.5246C110.284 50.0242 112.716 50.0242 114.215 48.5246Z" fill="url(#paint36_linear_1858_18761)"/>
<path d="M136.884 71.1938C138.811 69.2677 138.811 66.1448 136.884 64.2187C134.958 62.2926 131.835 62.2926 129.909 64.2187C127.983 66.1448 127.983 69.2677 129.909 71.1938C131.835 73.12 134.958 73.12 136.884 71.1938Z" fill="url(#paint37_linear_1858_18761)"/>
<path d="M158.781 93.0907C160.707 91.1646 160.707 88.0417 158.781 86.1156C156.855 84.1894 153.732 84.1894 151.806 86.1156C149.88 88.0417 149.88 91.1646 151.806 93.0907C153.732 95.0168 156.855 95.0168 158.781 93.0907Z" fill="url(#paint38_linear_1858_18761)"/>
<path d="M179.906 114.215C181.405 112.716 181.405 110.284 179.906 108.785C178.406 107.285 175.975 107.285 174.475 108.785C172.976 110.284 172.976 112.716 174.475 114.215C175.975 115.715 178.406 115.715 179.906 114.215Z" fill="url(#paint39_linear_1858_18761)"/>
<path d="M201.03 135.34C202.103 134.267 202.103 132.527 201.03 131.454C199.957 130.381 198.218 130.381 197.145 131.454C196.072 132.527 196.072 134.267 197.145 135.34C198.218 136.413 199.957 136.413 201.03 135.34Z" fill="url(#paint40_linear_1858_18761)"/>
<path d="M222.155 156.464C222.801 155.818 222.801 154.77 222.155 154.123C221.508 153.477 220.46 153.477 219.814 154.123C219.167 154.77 219.167 155.818 219.814 156.464C220.46 157.111 221.508 157.111 222.155 156.464Z" fill="url(#paint41_linear_1858_18761)"/>
<path d="M112.925 3.44095C113.712 2.65378 113.712 1.37754 112.925 0.590376C112.138 -0.196788 110.862 -0.196794 110.075 0.59037C109.288 1.37753 109.288 2.65378 110.075 3.44094C110.862 4.2281 112.138 4.22811 112.925 3.44095Z" fill="url(#paint42_linear_1858_18761)"/>
<path d="M135.34 25.8554C136.413 24.7824 136.413 23.0427 135.34 21.9697C134.267 20.8967 132.527 20.8967 131.454 21.9697C130.381 23.0427 130.381 24.7824 131.454 25.8554C132.527 26.9284 134.267 26.9284 135.34 25.8554Z" fill="url(#paint43_linear_1858_18761)"/>
<path d="M157.754 48.2698C159.113 46.911 159.113 44.7078 157.754 43.349C156.395 41.9901 154.192 41.9901 152.833 43.349C151.474 44.7078 151.474 46.911 152.833 48.2698C154.192 49.6287 156.395 49.6286 157.754 48.2698Z" fill="url(#paint44_linear_1858_18761)"/>
<path d="M179.651 70.1667C181.01 68.8078 181.01 66.6047 179.651 65.2459C178.292 63.887 176.089 63.887 174.73 65.2459C173.371 66.6047 173.371 68.8078 174.73 70.1667C176.089 71.5255 178.292 71.5255 179.651 70.1667Z" fill="url(#paint45_linear_1858_18761)"/>
<path d="M201.03 91.546C202.103 90.473 202.103 88.7333 201.03 87.6603C199.957 86.5873 198.218 86.5873 197.145 87.6603C196.072 88.7333 196.072 90.473 197.145 91.546C198.218 92.619 199.957 92.619 201.03 91.546Z" fill="url(#paint46_linear_1858_18761)"/>
<path d="M222.41 112.925C223.197 112.138 223.197 110.862 222.41 110.075C221.622 109.288 220.346 109.288 219.559 110.075C218.772 110.862 218.772 112.138 219.559 112.925C220.346 113.712 221.622 113.712 222.41 112.925Z" fill="url(#paint47_linear_1858_18761)"/>
<path d="M156.464 3.18615C157.111 2.5397 157.111 1.49161 156.464 0.84517C155.818 0.198728 154.77 0.198728 154.123 0.84517C153.477 1.49161 153.477 2.5397 154.123 3.18615C154.77 3.83259 155.818 3.83259 156.464 3.18615Z" fill="url(#paint48_linear_1858_18761)"/>
<path d="M178.616 25.3378C179.403 24.5507 179.403 23.2744 178.616 22.4872C177.829 21.7001 176.552 21.7001 175.765 22.4872C174.978 23.2744 174.978 24.5506 175.765 25.3378C176.552 26.125 177.829 26.125 178.616 25.3378Z" fill="url(#paint49_linear_1858_18761)"/>
<path d="M200.513 47.2347C201.3 46.4475 201.3 45.1713 200.513 44.3841C199.726 43.5969 198.449 43.5969 197.662 44.3841C196.875 45.1713 196.875 46.4475 197.662 47.2347C198.449 48.0218 199.726 48.0218 200.513 47.2347Z" fill="url(#paint50_linear_1858_18761)"/>
<path d="M222.155 68.8767C222.801 68.2303 222.801 67.1822 222.155 66.5358C221.508 65.8893 220.46 65.8893 219.814 66.5358C219.167 67.1822 219.167 68.2303 219.814 68.8767C220.46 69.5232 221.508 69.5232 222.155 68.8767Z" fill="url(#paint51_linear_1858_18761)"/>
</g>
<defs>
<linearGradient id="paint0_linear_1858_18761" x1="19.0694" y1="47.5614" x2="238.929" y2="321.937" gradientUnits="userSpaceOnUse">
<stop stop-color="#857FD0"/>
<stop offset="1" stop-color="#857FD0" stop-opacity="0"/>
</linearGradient>
<linearGradient id="paint1_linear_1858_18761" x1="19.0694" y1="47.5614" x2="238.929" y2="321.937" gradientUnits="userSpaceOnUse">
<stop stop-color="#857FD0"/>
<stop offset="1" stop-color="#857FD0" stop-opacity="0"/>
</linearGradient>
<linearGradient id="paint2_linear_1858_18761" x1="19.0694" y1="47.5614" x2="238.929" y2="321.937" gradientUnits="userSpaceOnUse">
<stop stop-color="#857FD0"/>
<stop offset="1" stop-color="#857FD0" stop-opacity="0"/>
</linearGradient>
<linearGradient id="paint3_linear_1858_18761" x1="19.0694" y1="47.5614" x2="238.929" y2="321.937" gradientUnits="userSpaceOnUse">
<stop stop-color="#857FD0"/>
<stop offset="1" stop-color="#857FD0" stop-opacity="0"/>
</linearGradient>
<linearGradient id="paint4_linear_1858_18761" x1="19.0694" y1="47.5614" x2="238.929" y2="321.937" gradientUnits="userSpaceOnUse">
<stop stop-color="#857FD0"/>
<stop offset="1" stop-color="#857FD0" stop-opacity="0"/>
</linearGradient>
<linearGradient id="paint5_linear_1858_18761" x1="19.0694" y1="47.5614" x2="238.929" y2="321.937" gradientUnits="userSpaceOnUse">
<stop stop-color="#857FD0"/>
<stop offset="1" stop-color="#857FD0" stop-opacity="0"/>
</linearGradient>
<linearGradient id="paint6_linear_1858_18761" x1="19.0694" y1="47.5614" x2="238.929" y2="321.937" gradientUnits="userSpaceOnUse">
<stop stop-color="#857FD0"/>
<stop offset="1" stop-color="#857FD0" stop-opacity="0"/>
</linearGradient>
<linearGradient id="paint7_linear_1858_18761" x1="19.0694" y1="47.5614" x2="238.929" y2="321.937" gradientUnits="userSpaceOnUse">
<stop stop-color="#857FD0"/>
<stop offset="1" stop-color="#857FD0" stop-opacity="0"/>
</linearGradient>
<linearGradient id="paint8_linear_1858_18761" x1="19.0694" y1="47.5614" x2="238.929" y2="321.937" gradientUnits="userSpaceOnUse">
<stop stop-color="#857FD0"/>
<stop offset="1" stop-color="#857FD0" stop-opacity="0"/>
</linearGradient>
<linearGradient id="paint9_linear_1858_18761" x1="19.0694" y1="47.5614" x2="238.929" y2="321.937" gradientUnits="userSpaceOnUse">
<stop stop-color="#857FD0"/>
<stop offset="1" stop-color="#857FD0" stop-opacity="0"/>
</linearGradient>
<linearGradient id="paint10_linear_1858_18761" x1="19.0694" y1="47.5614" x2="238.929" y2="321.937" gradientUnits="userSpaceOnUse">
<stop stop-color="#857FD0"/>
<stop offset="1" stop-color="#857FD0" stop-opacity="0"/>
</linearGradient>
<linearGradient id="paint11_linear_1858_18761" x1="19.0694" y1="47.5614" x2="238.929" y2="321.937" gradientUnits="userSpaceOnUse">
<stop stop-color="#857FD0"/>
<stop offset="1" stop-color="#857FD0" stop-opacity="0"/>
</linearGradient>
<linearGradient id="paint12_linear_1858_18761" x1="19.0694" y1="47.5614" x2="238.929" y2="321.937" gradientUnits="userSpaceOnUse">
<stop stop-color="#857FD0"/>
<stop offset="1" stop-color="#857FD0" stop-opacity="0"/>
</linearGradient>
<linearGradient id="paint13_linear_1858_18761" x1="19.0694" y1="47.5614" x2="238.929" y2="321.937" gradientUnits="userSpaceOnUse">
<stop stop-color="#857FD0"/>
<stop offset="1" stop-color="#857FD0" stop-opacity="0"/>
</linearGradient>
<linearGradient id="paint14_linear_1858_18761" x1="19.0694" y1="47.5614" x2="238.929" y2="321.937" gradientUnits="userSpaceOnUse">
<stop stop-color="#857FD0"/>
<stop offset="1" stop-color="#857FD0" stop-opacity="0"/>
</linearGradient>
<linearGradient id="paint15_linear_1858_18761" x1="19.0694" y1="47.5614" x2="238.929" y2="321.937" gradientUnits="userSpaceOnUse">
<stop stop-color="#857FD0"/>
<stop offset="1" stop-color="#857FD0" stop-opacity="0"/>
</linearGradient>
<linearGradient id="paint16_linear_1858_18761" x1="19.0694" y1="47.5614" x2="238.929" y2="321.937" gradientUnits="userSpaceOnUse">
<stop stop-color="#857FD0"/>
<stop offset="1" stop-color="#857FD0" stop-opacity="0"/>
</linearGradient>
<linearGradient id="paint17_linear_1858_18761" x1="19.0694" y1="47.5614" x2="238.929" y2="321.937" gradientUnits="userSpaceOnUse">
<stop stop-color="#857FD0"/>
<stop offset="1" stop-color="#857FD0" stop-opacity="0"/>
</linearGradient>
<linearGradient id="paint18_linear_1858_18761" x1="19.0694" y1="47.5614" x2="238.929" y2="321.937" gradientUnits="userSpaceOnUse">
<stop stop-color="#857FD0"/>
<stop offset="1" stop-color="#857FD0" stop-opacity="0"/>
</linearGradient>
<linearGradient id="paint19_linear_1858_18761" x1="19.0694" y1="47.5614" x2="238.929" y2="321.937" gradientUnits="userSpaceOnUse">
<stop stop-color="#857FD0"/>
<stop offset="1" stop-color="#857FD0" stop-opacity="0"/>
</linearGradient>
<linearGradient id="paint20_linear_1858_18761" x1="19.0694" y1="47.5614" x2="238.929" y2="321.937" gradientUnits="userSpaceOnUse">
<stop stop-color="#857FD0"/>
<stop offset="1" stop-color="#857FD0" stop-opacity="0"/>
</linearGradient>
<linearGradient id="paint21_linear_1858_18761" x1="19.0694" y1="47.5614" x2="238.929" y2="321.937" gradientUnits="userSpaceOnUse">
<stop stop-color="#857FD0"/>
<stop offset="1" stop-color="#857FD0" stop-opacity="0"/>
</linearGradient>
<linearGradient id="paint22_linear_1858_18761" x1="19.0694" y1="47.5614" x2="238.929" y2="321.937" gradientUnits="userSpaceOnUse">
<stop stop-color="#857FD0"/>
<stop offset="1" stop-color="#857FD0" stop-opacity="0"/>
</linearGradient>
<linearGradient id="paint23_linear_1858_18761" x1="19.0694" y1="47.5614" x2="238.929" y2="321.937" gradientUnits="userSpaceOnUse">
<stop stop-color="#857FD0"/>
<stop offset="1" stop-color="#857FD0" stop-opacity="0"/>
</linearGradient>
<linearGradient id="paint24_linear_1858_18761" x1="19.0694" y1="47.5614" x2="238.929" y2="321.937" gradientUnits="userSpaceOnUse">
<stop stop-color="#857FD0"/>
<stop offset="1" stop-color="#857FD0" stop-opacity="0"/>
</linearGradient>
<linearGradient id="paint25_linear_1858_18761" x1="19.0694" y1="47.5614" x2="238.929" y2="321.937" gradientUnits="userSpaceOnUse">
<stop stop-color="#857FD0"/>
<stop offset="1" stop-color="#857FD0" stop-opacity="0"/>
</linearGradient>
<linearGradient id="paint26_linear_1858_18761" x1="19.0694" y1="47.5614" x2="238.929" y2="321.937" gradientUnits="userSpaceOnUse">
<stop stop-color="#857FD0"/>
<stop offset="1" stop-color="#857FD0" stop-opacity="0"/>
</linearGradient>
<linearGradient id="paint27_linear_1858_18761" x1="19.0694" y1="47.5614" x2="238.929" y2="321.937" gradientUnits="userSpaceOnUse">
<stop stop-color="#857FD0"/>
<stop offset="1" stop-color="#857FD0" stop-opacity="0"/>
</linearGradient>
<linearGradient id="paint28_linear_1858_18761" x1="19.0694" y1="47.5614" x2="238.929" y2="321.937" gradientUnits="userSpaceOnUse">
<stop stop-color="#857FD0"/>
<stop offset="1" stop-color="#857FD0" stop-opacity="0"/>
</linearGradient>
<linearGradient id="paint29_linear_1858_18761" x1="19.0694" y1="47.5614" x2="238.929" y2="321.937" gradientUnits="userSpaceOnUse">
<stop stop-color="#857FD0"/>
<stop offset="1" stop-color="#857FD0" stop-opacity="0"/>
</linearGradient>
<linearGradient id="paint30_linear_1858_18761" x1="19.0694" y1="47.5614" x2="238.929" y2="321.937" gradientUnits="userSpaceOnUse">
<stop stop-color="#857FD0"/>
<stop offset="1" stop-color="#857FD0" stop-opacity="0"/>
</linearGradient>
<linearGradient id="paint31_linear_1858_18761" x1="19.0694" y1="47.5614" x2="238.929" y2="321.937" gradientUnits="userSpaceOnUse">
<stop stop-color="#857FD0"/>
<stop offset="1" stop-color="#857FD0" stop-opacity="0"/>
</linearGradient>
<linearGradient id="paint32_linear_1858_18761" x1="19.0694" y1="47.5614" x2="238.929" y2="321.937" gradientUnits="userSpaceOnUse">
<stop stop-color="#857FD0"/>
<stop offset="1" stop-color="#857FD0" stop-opacity="0"/>
</linearGradient>
<linearGradient id="paint33_linear_1858_18761" x1="19.0694" y1="47.5614" x2="238.929" y2="321.937" gradientUnits="userSpaceOnUse">
<stop stop-color="#857FD0"/>
<stop offset="1" stop-color="#857FD0" stop-opacity="0"/>
</linearGradient>
<linearGradient id="paint34_linear_1858_18761" x1="19.0694" y1="47.5614" x2="238.929" y2="321.937" gradientUnits="userSpaceOnUse">
<stop stop-color="#857FD0"/>
<stop offset="1" stop-color="#857FD0" stop-opacity="0"/>
</linearGradient>
<linearGradient id="paint35_linear_1858_18761" x1="19.0694" y1="47.5614" x2="238.929" y2="321.937" gradientUnits="userSpaceOnUse">
<stop stop-color="#857FD0"/>
<stop offset="1" stop-color="#857FD0" stop-opacity="0"/>
</linearGradient>
<linearGradient id="paint36_linear_1858_18761" x1="19.0694" y1="47.5614" x2="238.929" y2="321.937" gradientUnits="userSpaceOnUse">
<stop stop-color="#857FD0"/>
<stop offset="1" stop-color="#857FD0" stop-opacity="0"/>
</linearGradient>
<linearGradient id="paint37_linear_1858_18761" x1="19.0694" y1="47.5614" x2="238.929" y2="321.937" gradientUnits="userSpaceOnUse">
<stop stop-color="#857FD0"/>
<stop offset="1" stop-color="#857FD0" stop-opacity="0"/>
</linearGradient>
<linearGradient id="paint38_linear_1858_18761" x1="19.0694" y1="47.5614" x2="238.929" y2="321.937" gradientUnits="userSpaceOnUse">
<stop stop-color="#857FD0"/>
<stop offset="1" stop-color="#857FD0" stop-opacity="0"/>
</linearGradient>
<linearGradient id="paint39_linear_1858_18761" x1="19.0694" y1="47.5614" x2="238.929" y2="321.937" gradientUnits="userSpaceOnUse">
<stop stop-color="#857FD0"/>
<stop offset="1" stop-color="#857FD0" stop-opacity="0"/>
</linearGradient>
<linearGradient id="paint40_linear_1858_18761" x1="19.0694" y1="47.5614" x2="238.929" y2="321.937" gradientUnits="userSpaceOnUse">
<stop stop-color="#857FD0"/>
<stop offset="1" stop-color="#857FD0" stop-opacity="0"/>
</linearGradient>
<linearGradient id="paint41_linear_1858_18761" x1="19.0694" y1="47.5614" x2="238.929" y2="321.937" gradientUnits="userSpaceOnUse">
<stop stop-color="#857FD0"/>
<stop offset="1" stop-color="#857FD0" stop-opacity="0"/>
</linearGradient>
<linearGradient id="paint42_linear_1858_18761" x1="19.0694" y1="47.5614" x2="238.929" y2="321.937" gradientUnits="userSpaceOnUse">
<stop stop-color="#857FD0"/>
<stop offset="1" stop-color="#857FD0" stop-opacity="0"/>
</linearGradient>
<linearGradient id="paint43_linear_1858_18761" x1="19.0694" y1="47.5614" x2="238.929" y2="321.937" gradientUnits="userSpaceOnUse">
<stop stop-color="#857FD0"/>
<stop offset="1" stop-color="#857FD0" stop-opacity="0"/>
</linearGradient>
<linearGradient id="paint44_linear_1858_18761" x1="19.0694" y1="47.5614" x2="238.929" y2="321.937" gradientUnits="userSpaceOnUse">
<stop stop-color="#857FD0"/>
<stop offset="1" stop-color="#857FD0" stop-opacity="0"/>
</linearGradient>
<linearGradient id="paint45_linear_1858_18761" x1="19.0694" y1="47.5614" x2="238.929" y2="321.937" gradientUnits="userSpaceOnUse">
<stop stop-color="#857FD0"/>
<stop offset="1" stop-color="#857FD0" stop-opacity="0"/>
</linearGradient>
<linearGradient id="paint46_linear_1858_18761" x1="19.0694" y1="47.5614" x2="238.929" y2="321.937" gradientUnits="userSpaceOnUse">
<stop stop-color="#857FD0"/>
<stop offset="1" stop-color="#857FD0" stop-opacity="0"/>
</linearGradient>
<linearGradient id="paint47_linear_1858_18761" x1="19.0694" y1="47.5614" x2="238.929" y2="321.937" gradientUnits="userSpaceOnUse">
<stop stop-color="#857FD0"/>
<stop offset="1" stop-color="#857FD0" stop-opacity="0"/>
</linearGradient>
<linearGradient id="paint48_linear_1858_18761" x1="19.0694" y1="47.5614" x2="238.929" y2="321.937" gradientUnits="userSpaceOnUse">
<stop stop-color="#857FD0"/>
<stop offset="1" stop-color="#857FD0" stop-opacity="0"/>
</linearGradient>
<linearGradient id="paint49_linear_1858_18761" x1="19.0694" y1="47.5614" x2="238.929" y2="321.937" gradientUnits="userSpaceOnUse">
<stop stop-color="#857FD0"/>
<stop offset="1" stop-color="#857FD0" stop-opacity="0"/>
</linearGradient>
<linearGradient id="paint50_linear_1858_18761" x1="19.0694" y1="47.5614" x2="238.929" y2="321.937" gradientUnits="userSpaceOnUse">
<stop stop-color="#857FD0"/>
<stop offset="1" stop-color="#857FD0" stop-opacity="0"/>
</linearGradient>
<linearGradient id="paint51_linear_1858_18761" x1="19.0694" y1="47.5614" x2="238.929" y2="321.937" gradientUnits="userSpaceOnUse">
<stop stop-color="#857FD0"/>
<stop offset="1" stop-color="#857FD0" stop-opacity="0"/>
</linearGradient>
</defs>
</svg>
