<svg width="266" height="298" viewBox="0 0 266 298" fill="none" xmlns="http://www.w3.org/2000/svg">
<path fill-rule="evenodd" clip-rule="evenodd" d="M39.927 9.53092C41.3814 5.10818 47.638 5.10818 49.0924 9.53092L53.4507 22.7831L66.7029 27.1414C71.1256 28.5958 71.1256 34.8524 66.7029 36.3068L53.4507 40.665L49.0924 53.9172C47.638 58.34 41.3814 58.34 39.927 53.9172L35.5688 40.665L22.3166 36.3068C17.8938 34.8524 17.8938 28.5958 22.3166 27.1414L35.5688 22.7831L39.927 9.53092Z" fill="url(#paint0_radial_2111_9790)"/>
<g filter="url(#filter0_bii_2111_9790)">
<path fill-rule="evenodd" clip-rule="evenodd" d="M44.8337 3.31706C46.2882 -1.10569 52.5447 -1.10569 53.9992 3.31706L58.3574 16.5693L71.6096 20.9275C76.0324 22.3819 76.0324 28.6385 71.6096 30.0929L58.3574 34.4512L53.9992 47.7034C52.5447 52.1261 46.2882 52.1261 44.8337 47.7034L40.4755 34.4512L27.2233 30.0929C22.8006 28.6385 22.8006 22.3819 27.2233 20.9275L40.4755 16.5693L44.8337 3.31706Z" fill="url(#paint1_radial_2111_9790)" fill-opacity="0.1"/>
</g>
<mask id="mask0_2111_9790" style="mask-type:alpha" maskUnits="userSpaceOnUse" x="19" y="6" width="52" height="52">
<path fill-rule="evenodd" clip-rule="evenodd" d="M39.9275 9.53141C41.3819 5.10867 47.6385 5.10867 49.0929 9.53141L53.4512 22.7836L66.7034 27.1418C71.1261 28.5963 71.1261 34.8529 66.7034 36.3073L53.4512 40.6655L49.0929 53.9177C47.6385 58.3405 41.3819 58.3405 39.9275 53.9177L35.5692 40.6655L22.3171 36.3073C17.8943 34.8529 17.8943 28.5963 22.3171 27.1418L35.5692 22.7836L39.9275 9.53141Z" fill="url(#paint2_radial_2111_9790)"/>
</mask>
<g mask="url(#mask0_2111_9790)">
<g filter="url(#filter1_bdii_2111_9790)">
<path fill-rule="evenodd" clip-rule="evenodd" d="M44.8337 3.31754C46.2882 -1.1052 52.5447 -1.1052 53.9992 3.31754L58.3574 16.5697L71.6096 20.928C76.0324 22.3824 76.0324 28.639 71.6096 30.0934L58.3574 34.4517L53.9992 47.7039C52.5447 52.1266 46.2882 52.1266 44.8337 47.7039L40.4755 34.4517L27.2233 30.0934C22.8006 28.639 22.8006 22.3824 27.2233 20.928L40.4755 16.5697L44.8337 3.31754Z" fill="url(#paint3_radial_2111_9790)" fill-opacity="0.1" shape-rendering="crispEdges"/>
</g>
</g>
<path fill-rule="evenodd" clip-rule="evenodd" d="M181.475 257.759C182.69 254.066 187.915 254.066 189.129 257.759L192.769 268.826L203.835 272.465C207.529 273.68 207.529 278.904 203.835 280.119L192.769 283.758L189.129 294.825C187.915 298.518 182.69 298.518 181.475 294.825L177.836 283.758L166.769 280.119C163.076 278.904 163.076 273.68 166.769 272.465L177.836 268.826L181.475 257.759Z" fill="url(#paint4_radial_2111_9790)"/>
<g filter="url(#filter2_bii_2111_9790)">
<path fill-rule="evenodd" clip-rule="evenodd" d="M185.573 252.57C186.787 248.876 192.012 248.876 193.226 252.57L196.866 263.636L207.932 267.276C211.626 268.49 211.626 273.715 207.932 274.93L196.866 278.569L193.226 289.636C192.012 293.329 186.787 293.329 185.573 289.636L181.933 278.569L170.867 274.93C167.173 273.715 167.173 268.49 170.867 267.276L181.933 263.636L185.573 252.57Z" fill="url(#paint5_radial_2111_9790)" fill-opacity="0.1"/>
</g>
<mask id="mask1_2111_9790" style="mask-type:alpha" maskUnits="userSpaceOnUse" x="163" y="254" width="44" height="44">
<path fill-rule="evenodd" clip-rule="evenodd" d="M181.475 257.759C182.69 254.066 187.915 254.066 189.129 257.759L192.769 268.826L203.835 272.465C207.529 273.68 207.529 278.904 203.835 280.119L192.769 283.758L189.129 294.825C187.915 298.518 182.69 298.518 181.475 294.825L177.836 283.758L166.769 280.119C163.076 278.904 163.076 273.68 166.769 272.465L177.836 268.826L181.475 257.759Z" fill="url(#paint6_radial_2111_9790)"/>
</mask>
<g mask="url(#mask1_2111_9790)">
<g filter="url(#filter3_bdii_2111_9790)">
<path fill-rule="evenodd" clip-rule="evenodd" d="M185.573 252.57C186.787 248.876 192.012 248.876 193.226 252.57L196.866 263.636L207.932 267.276C211.626 268.49 211.626 273.715 207.932 274.93L196.866 278.569L193.226 289.636C192.012 293.329 186.787 293.329 185.573 289.636L181.933 278.569L170.867 274.93C167.173 273.715 167.173 268.49 170.867 267.276L181.933 263.636L185.573 252.57Z" fill="url(#paint7_radial_2111_9790)" fill-opacity="0.1" shape-rendering="crispEdges"/>
</g>
</g>
<path fill-rule="evenodd" clip-rule="evenodd" d="M246.959 61.0157C247.621 59.0039 250.467 59.0039 251.128 61.0157L253.111 67.0439L259.139 69.0263C261.151 69.6879 261.151 72.5339 259.139 73.1955L253.111 75.178L251.128 81.2062C250.467 83.218 247.621 83.218 246.959 81.2062L244.976 75.178L238.948 73.1955C236.936 72.5339 236.936 69.6879 238.948 69.0263L244.976 67.0439L246.959 61.0157Z" fill="url(#paint8_radial_2111_9790)"/>
<g filter="url(#filter4_bii_2111_9790)">
<path fill-rule="evenodd" clip-rule="evenodd" d="M249.191 58.189C249.852 56.1772 252.698 56.1772 253.36 58.189L255.343 64.2172L261.371 66.1997C263.383 66.8613 263.383 69.7073 261.371 70.3689L255.343 72.3514L253.36 78.3795C252.698 80.3913 249.852 80.3913 249.191 78.3795L247.208 72.3514L241.18 70.3689C239.168 69.7073 239.168 66.8613 241.18 66.1997L247.208 64.2172L249.191 58.189Z" fill="url(#paint9_radial_2111_9790)" fill-opacity="0.1"/>
</g>
<mask id="mask2_2111_9790" style="mask-type:alpha" maskUnits="userSpaceOnUse" x="237" y="59" width="24" height="24">
<path fill-rule="evenodd" clip-rule="evenodd" d="M246.959 61.0157C247.621 59.0039 250.467 59.0039 251.129 61.0157L253.111 67.0439L259.139 69.0263C261.151 69.6879 261.151 72.5339 259.139 73.1955L253.111 75.178L251.129 81.2062C250.467 83.218 247.621 83.218 246.959 81.2062L244.977 75.178L238.949 73.1955C236.937 72.5339 236.937 69.6879 238.949 69.0263L244.977 67.0439L246.959 61.0157Z" fill="url(#paint10_radial_2111_9790)"/>
</mask>
<g mask="url(#mask2_2111_9790)">
<g filter="url(#filter5_bdii_2111_9790)">
<path fill-rule="evenodd" clip-rule="evenodd" d="M249.191 58.189C249.853 56.1772 252.699 56.1772 253.361 58.189L255.343 64.2172L261.371 66.1997C263.383 66.8613 263.383 69.7073 261.371 70.3689L255.343 72.3514L253.361 78.3795C252.699 80.3913 249.853 80.3913 249.191 78.3795L247.209 72.3514L241.181 70.3689C239.169 69.7073 239.169 66.8613 241.181 66.1997L247.209 64.2172L249.191 58.189Z" fill="url(#paint11_radial_2111_9790)" fill-opacity="0.1" shape-rendering="crispEdges"/>
</g>
</g>
<path d="M128.238 160.943V243.501L211.26 194.801V110.852L128.238 160.943Z" fill="#8A21C4"/>
<path d="M128.238 160.943V243.501L45.6797 194.801V110.852L128.238 160.943Z" fill="#7602B6"/>
<path d="M211.26 110.852L128.238 160.943L45.6797 110.852L128.238 60.7603L211.26 110.852Z" fill="#B36FD9"/>
<path d="M191.857 149.473C188.952 147.75 183.18 149.188 177.978 151.141C172.385 153.241 167.452 155.941 167.452 155.941V206.96L164.299 204.143V152.773C164.299 152.773 181.485 143.104 188.966 147.662C190.184 148.365 191.675 149.352 191.857 149.473Z" fill="#BE6BDF"/>
<path d="M162.232 174.507L158.473 172.78C158.473 172.78 151.08 178.06 151.08 185.405C151.08 194.72 158.167 195.842 158.167 195.842" fill="#BE6BDF"/>
<path d="M162.232 194.727C157.744 197.452 154.102 195.133 154.102 189.55C154.102 183.968 157.741 177.233 162.232 174.507V194.727Z" fill="white"/>
<path d="M167.453 206.96V155.941C167.453 155.941 172.386 153.241 177.979 151.141C183.181 149.188 188.952 147.75 191.858 149.473C191.865 149.477 191.869 149.481 191.876 149.484C191.876 161.776 192.503 180.573 167.453 206.96Z" fill="white"/>
<path d="M128.17 160.914V267.545L235.399 204.645V96.2173L128.17 160.914Z" fill="white" fill-opacity="0.2" stroke="#8A21C4" stroke-width="3" stroke-linejoin="round"/>
<path d="M128.17 160.914V267.545L21.5394 204.645V96.2173L128.17 160.914Z" fill="white" fill-opacity="0.2" stroke="#8A21C4" stroke-width="3" stroke-linejoin="round"/>
<path d="M235.4 96.2172L128.17 160.914L21.5396 96.2172L128.17 31.52L235.4 96.2172Z" fill="white" fill-opacity="0.2" stroke="#8A21C4" stroke-width="3" stroke-linejoin="round"/>
<path d="M248.32 168.88L248.32 177.014L256.454 177.014L256.454 168.88L248.32 168.88Z" fill="#8A21C4"/>
<path d="M242.88 124.68L242.88 132.814L251.014 132.814L251.014 124.68L242.88 124.68Z" fill="#8A21C4"/>
<path d="M223.84 156.64L223.84 160.72L227.92 160.72L227.92 156.64L223.84 156.64Z" fill="#8A21C4"/>
<path d="M225.88 192L225.88 196.08L229.96 196.08L229.96 192L225.88 192Z" fill="#8A21C4"/>
<path d="M261.92 148.48L261.92 152.56L266 152.56L266 148.48L261.92 148.48Z" fill="#8A21C4"/>
<path d="M24.5996 115.16L24.5996 123.294L32.7336 123.294L32.7336 115.16L24.5996 115.16Z" fill="#8A21C4"/>
<path d="M19.1597 70.96L19.1597 79.094L27.2937 79.094L27.2937 70.96L19.1597 70.96Z" fill="#8A21C4"/>
<path d="M0.119629 102.92L0.119629 107L4.19963 107L4.19963 102.92L0.119629 102.92Z" fill="#8A21C4"/>
<path d="M2.15967 138.28L2.15967 142.36L6.23967 142.36L6.23967 138.28L2.15967 138.28Z" fill="#8A21C4"/>
<path d="M38.1997 94.7603L38.1997 98.8403L42.2797 98.8403L42.2797 94.7603L38.1997 94.7603Z" fill="#8A21C4"/>
<defs>
<filter id="filter0_bii_2111_9790" x="3.90625" y="-20" width="91.0205" height="91.0205" filterUnits="userSpaceOnUse" color-interpolation-filters="sRGB">
<feFlood flood-opacity="0" result="BackgroundImageFix"/>
<feGaussianBlur in="BackgroundImageFix" stdDeviation="10"/>
<feComposite in2="SourceAlpha" operator="in" result="effect1_backgroundBlur_2111_9790"/>
<feBlend mode="normal" in="SourceGraphic" in2="effect1_backgroundBlur_2111_9790" result="shape"/>
<feColorMatrix in="SourceAlpha" type="matrix" values="0 0 0 0 0 0 0 0 0 0 0 0 0 0 0 0 0 0 127 0" result="hardAlpha"/>
<feOffset dy="10"/>
<feGaussianBlur stdDeviation="5"/>
<feComposite in2="hardAlpha" operator="arithmetic" k2="-1" k3="1"/>
<feColorMatrix type="matrix" values="0 0 0 0 1 0 0 0 0 1 0 0 0 0 1 0 0 0 0.15 0"/>
<feBlend mode="normal" in2="shape" result="effect2_innerShadow_2111_9790"/>
<feColorMatrix in="SourceAlpha" type="matrix" values="0 0 0 0 0 0 0 0 0 0 0 0 0 0 0 0 0 0 127 0" result="hardAlpha"/>
<feOffset dy="-10"/>
<feGaussianBlur stdDeviation="5"/>
<feComposite in2="hardAlpha" operator="arithmetic" k2="-1" k3="1"/>
<feColorMatrix type="matrix" values="0 0 0 0 0.539364 0 0 0 0 0.128156 0 0 0 0 0.76684 0 0 0 0.1 0"/>
<feBlend mode="normal" in2="effect2_innerShadow_2111_9790" result="effect3_innerShadow_2111_9790"/>
</filter>
<filter id="filter1_bdii_2111_9790" x="-1.09375" y="-20.9995" width="101.021" height="101.021" filterUnits="userSpaceOnUse" color-interpolation-filters="sRGB">
<feFlood flood-opacity="0" result="BackgroundImageFix"/>
<feGaussianBlur in="BackgroundImageFix" stdDeviation="10"/>
<feComposite in2="SourceAlpha" operator="in" result="effect1_backgroundBlur_2111_9790"/>
<feColorMatrix in="SourceAlpha" type="matrix" values="0 0 0 0 0 0 0 0 0 0 0 0 0 0 0 0 0 0 127 0" result="hardAlpha"/>
<feOffset dy="4"/>
<feGaussianBlur stdDeviation="12.5"/>
<feComposite in2="hardAlpha" operator="out"/>
<feColorMatrix type="matrix" values="0 0 0 0 0.539364 0 0 0 0 0.128156 0 0 0 0 0.76684 0 0 0 1 0"/>
<feBlend mode="normal" in2="effect1_backgroundBlur_2111_9790" result="effect2_dropShadow_2111_9790"/>
<feBlend mode="normal" in="SourceGraphic" in2="effect2_dropShadow_2111_9790" result="shape"/>
<feColorMatrix in="SourceAlpha" type="matrix" values="0 0 0 0 0 0 0 0 0 0 0 0 0 0 0 0 0 0 127 0" result="hardAlpha"/>
<feOffset dy="10"/>
<feGaussianBlur stdDeviation="5"/>
<feComposite in2="hardAlpha" operator="arithmetic" k2="-1" k3="1"/>
<feColorMatrix type="matrix" values="0 0 0 0 1 0 0 0 0 1 0 0 0 0 1 0 0 0 0.15 0"/>
<feBlend mode="normal" in2="shape" result="effect3_innerShadow_2111_9790"/>
<feColorMatrix in="SourceAlpha" type="matrix" values="0 0 0 0 0 0 0 0 0 0 0 0 0 0 0 0 0 0 127 0" result="hardAlpha"/>
<feOffset dy="-10"/>
<feGaussianBlur stdDeviation="5"/>
<feComposite in2="hardAlpha" operator="arithmetic" k2="-1" k3="1"/>
<feColorMatrix type="matrix" values="0 0 0 0 0.539364 0 0 0 0 0.128156 0 0 0 0 0.76684 0 0 0 0.1 0"/>
<feBlend mode="normal" in2="effect3_innerShadow_2111_9790" result="effect4_innerShadow_2111_9790"/>
</filter>
<filter id="filter2_bii_2111_9790" x="148.097" y="229.8" width="82.6055" height="82.6055" filterUnits="userSpaceOnUse" color-interpolation-filters="sRGB">
<feFlood flood-opacity="0" result="BackgroundImageFix"/>
<feGaussianBlur in="BackgroundImageFix" stdDeviation="10"/>
<feComposite in2="SourceAlpha" operator="in" result="effect1_backgroundBlur_2111_9790"/>
<feBlend mode="normal" in="SourceGraphic" in2="effect1_backgroundBlur_2111_9790" result="shape"/>
<feColorMatrix in="SourceAlpha" type="matrix" values="0 0 0 0 0 0 0 0 0 0 0 0 0 0 0 0 0 0 127 0" result="hardAlpha"/>
<feOffset dy="10"/>
<feGaussianBlur stdDeviation="5"/>
<feComposite in2="hardAlpha" operator="arithmetic" k2="-1" k3="1"/>
<feColorMatrix type="matrix" values="0 0 0 0 1 0 0 0 0 1 0 0 0 0 1 0 0 0 0.15 0"/>
<feBlend mode="normal" in2="shape" result="effect2_innerShadow_2111_9790"/>
<feColorMatrix in="SourceAlpha" type="matrix" values="0 0 0 0 0 0 0 0 0 0 0 0 0 0 0 0 0 0 127 0" result="hardAlpha"/>
<feOffset dy="-10"/>
<feGaussianBlur stdDeviation="5"/>
<feComposite in2="hardAlpha" operator="arithmetic" k2="-1" k3="1"/>
<feColorMatrix type="matrix" values="0 0 0 0 0.539364 0 0 0 0 0.128156 0 0 0 0 0.76684 0 0 0 0.1 0"/>
<feBlend mode="normal" in2="effect2_innerShadow_2111_9790" result="effect3_innerShadow_2111_9790"/>
</filter>
<filter id="filter3_bdii_2111_9790" x="143.097" y="228.8" width="92.6055" height="92.6055" filterUnits="userSpaceOnUse" color-interpolation-filters="sRGB">
<feFlood flood-opacity="0" result="BackgroundImageFix"/>
<feGaussianBlur in="BackgroundImageFix" stdDeviation="10"/>
<feComposite in2="SourceAlpha" operator="in" result="effect1_backgroundBlur_2111_9790"/>
<feColorMatrix in="SourceAlpha" type="matrix" values="0 0 0 0 0 0 0 0 0 0 0 0 0 0 0 0 0 0 127 0" result="hardAlpha"/>
<feOffset dy="4"/>
<feGaussianBlur stdDeviation="12.5"/>
<feComposite in2="hardAlpha" operator="out"/>
<feColorMatrix type="matrix" values="0 0 0 0 0.539364 0 0 0 0 0.128156 0 0 0 0 0.76684 0 0 0 1 0"/>
<feBlend mode="normal" in2="effect1_backgroundBlur_2111_9790" result="effect2_dropShadow_2111_9790"/>
<feBlend mode="normal" in="SourceGraphic" in2="effect2_dropShadow_2111_9790" result="shape"/>
<feColorMatrix in="SourceAlpha" type="matrix" values="0 0 0 0 0 0 0 0 0 0 0 0 0 0 0 0 0 0 127 0" result="hardAlpha"/>
<feOffset dy="10"/>
<feGaussianBlur stdDeviation="5"/>
<feComposite in2="hardAlpha" operator="arithmetic" k2="-1" k3="1"/>
<feColorMatrix type="matrix" values="0 0 0 0 1 0 0 0 0 1 0 0 0 0 1 0 0 0 0.15 0"/>
<feBlend mode="normal" in2="shape" result="effect3_innerShadow_2111_9790"/>
<feColorMatrix in="SourceAlpha" type="matrix" values="0 0 0 0 0 0 0 0 0 0 0 0 0 0 0 0 0 0 127 0" result="hardAlpha"/>
<feOffset dy="-10"/>
<feGaussianBlur stdDeviation="5"/>
<feComposite in2="hardAlpha" operator="arithmetic" k2="-1" k3="1"/>
<feColorMatrix type="matrix" values="0 0 0 0 0.539364 0 0 0 0 0.128156 0 0 0 0 0.76684 0 0 0 0.1 0"/>
<feBlend mode="normal" in2="effect3_innerShadow_2111_9790" result="effect4_innerShadow_2111_9790"/>
</filter>
<filter id="filter4_bii_2111_9790" x="219.671" y="36.6802" width="63.208" height="63.208" filterUnits="userSpaceOnUse" color-interpolation-filters="sRGB">
<feFlood flood-opacity="0" result="BackgroundImageFix"/>
<feGaussianBlur in="BackgroundImageFix" stdDeviation="10"/>
<feComposite in2="SourceAlpha" operator="in" result="effect1_backgroundBlur_2111_9790"/>
<feBlend mode="normal" in="SourceGraphic" in2="effect1_backgroundBlur_2111_9790" result="shape"/>
<feColorMatrix in="SourceAlpha" type="matrix" values="0 0 0 0 0 0 0 0 0 0 0 0 0 0 0 0 0 0 127 0" result="hardAlpha"/>
<feOffset dy="10"/>
<feGaussianBlur stdDeviation="5"/>
<feComposite in2="hardAlpha" operator="arithmetic" k2="-1" k3="1"/>
<feColorMatrix type="matrix" values="0 0 0 0 1 0 0 0 0 1 0 0 0 0 1 0 0 0 0.15 0"/>
<feBlend mode="normal" in2="shape" result="effect2_innerShadow_2111_9790"/>
<feColorMatrix in="SourceAlpha" type="matrix" values="0 0 0 0 0 0 0 0 0 0 0 0 0 0 0 0 0 0 127 0" result="hardAlpha"/>
<feOffset dy="-10"/>
<feGaussianBlur stdDeviation="5"/>
<feComposite in2="hardAlpha" operator="arithmetic" k2="-1" k3="1"/>
<feColorMatrix type="matrix" values="0 0 0 0 0.539364 0 0 0 0 0.128156 0 0 0 0 0.76684 0 0 0 0.1 0"/>
<feBlend mode="normal" in2="effect2_innerShadow_2111_9790" result="effect3_innerShadow_2111_9790"/>
</filter>
<filter id="filter5_bdii_2111_9790" x="214.672" y="35.6802" width="73.208" height="73.208" filterUnits="userSpaceOnUse" color-interpolation-filters="sRGB">
<feFlood flood-opacity="0" result="BackgroundImageFix"/>
<feGaussianBlur in="BackgroundImageFix" stdDeviation="10"/>
<feComposite in2="SourceAlpha" operator="in" result="effect1_backgroundBlur_2111_9790"/>
<feColorMatrix in="SourceAlpha" type="matrix" values="0 0 0 0 0 0 0 0 0 0 0 0 0 0 0 0 0 0 127 0" result="hardAlpha"/>
<feOffset dy="4"/>
<feGaussianBlur stdDeviation="12.5"/>
<feComposite in2="hardAlpha" operator="out"/>
<feColorMatrix type="matrix" values="0 0 0 0 0.539364 0 0 0 0 0.128156 0 0 0 0 0.76684 0 0 0 1 0"/>
<feBlend mode="normal" in2="effect1_backgroundBlur_2111_9790" result="effect2_dropShadow_2111_9790"/>
<feBlend mode="normal" in="SourceGraphic" in2="effect2_dropShadow_2111_9790" result="shape"/>
<feColorMatrix in="SourceAlpha" type="matrix" values="0 0 0 0 0 0 0 0 0 0 0 0 0 0 0 0 0 0 127 0" result="hardAlpha"/>
<feOffset dy="10"/>
<feGaussianBlur stdDeviation="5"/>
<feComposite in2="hardAlpha" operator="arithmetic" k2="-1" k3="1"/>
<feColorMatrix type="matrix" values="0 0 0 0 1 0 0 0 0 1 0 0 0 0 1 0 0 0 0.15 0"/>
<feBlend mode="normal" in2="shape" result="effect3_innerShadow_2111_9790"/>
<feColorMatrix in="SourceAlpha" type="matrix" values="0 0 0 0 0 0 0 0 0 0 0 0 0 0 0 0 0 0 127 0" result="hardAlpha"/>
<feOffset dy="-10"/>
<feGaussianBlur stdDeviation="5"/>
<feComposite in2="hardAlpha" operator="arithmetic" k2="-1" k3="1"/>
<feColorMatrix type="matrix" values="0 0 0 0 0.539364 0 0 0 0 0.128156 0 0 0 0 0.76684 0 0 0 0.1 0"/>
<feBlend mode="normal" in2="effect3_innerShadow_2111_9790" result="effect4_innerShadow_2111_9790"/>
</filter>
<radialGradient id="paint0_radial_2111_9790" cx="0" cy="0" r="1" gradientUnits="userSpaceOnUse" gradientTransform="translate(44.5097 31.7241) rotate(90) scale(25.5102)">
<stop stop-color="#8A21C4"/>
<stop offset="1" stop-color="#CA9BE4"/>
</radialGradient>
<radialGradient id="paint1_radial_2111_9790" cx="0" cy="0" r="1" gradientUnits="userSpaceOnUse" gradientTransform="translate(49.4165 25.5102) rotate(90) scale(25.5102)">
<stop stop-color="#8A21C4"/>
<stop offset="1" stop-color="#CA9BE4"/>
</radialGradient>
<radialGradient id="paint2_radial_2111_9790" cx="0" cy="0" r="1" gradientUnits="userSpaceOnUse" gradientTransform="translate(44.5102 31.7246) rotate(90) scale(25.5102)">
<stop stop-color="#8A21C4"/>
<stop offset="1" stop-color="#CA9BE4"/>
</radialGradient>
<radialGradient id="paint3_radial_2111_9790" cx="0" cy="0" r="1" gradientUnits="userSpaceOnUse" gradientTransform="translate(49.4165 25.5107) rotate(90) scale(25.5102)">
<stop stop-color="#8A21C4"/>
<stop offset="1" stop-color="#CA9BE4"/>
</radialGradient>
<radialGradient id="paint4_radial_2111_9790" cx="0" cy="0" r="1" gradientUnits="userSpaceOnUse" gradientTransform="translate(185.302 276.292) rotate(90) scale(21.3029)">
<stop stop-color="#8A21C4"/>
<stop offset="1" stop-color="#CA9BE4"/>
</radialGradient>
<radialGradient id="paint5_radial_2111_9790" cx="0" cy="0" r="1" gradientUnits="userSpaceOnUse" gradientTransform="translate(189.4 271.103) rotate(90) scale(21.3029)">
<stop stop-color="#8A21C4"/>
<stop offset="1" stop-color="#CA9BE4"/>
</radialGradient>
<radialGradient id="paint6_radial_2111_9790" cx="0" cy="0" r="1" gradientUnits="userSpaceOnUse" gradientTransform="translate(185.302 276.292) rotate(90) scale(21.3029)">
<stop stop-color="#8A21C4"/>
<stop offset="1" stop-color="#CA9BE4"/>
</radialGradient>
<radialGradient id="paint7_radial_2111_9790" cx="0" cy="0" r="1" gradientUnits="userSpaceOnUse" gradientTransform="translate(189.4 271.103) rotate(90) scale(21.3029)">
<stop stop-color="#8A21C4"/>
<stop offset="1" stop-color="#CA9BE4"/>
</radialGradient>
<radialGradient id="paint8_radial_2111_9790" cx="0" cy="0" r="1" gradientUnits="userSpaceOnUse" gradientTransform="translate(249.044 71.1109) rotate(90) scale(11.6041)">
<stop stop-color="#8A21C4"/>
<stop offset="1" stop-color="#CA9BE4"/>
</radialGradient>
<radialGradient id="paint9_radial_2111_9790" cx="0" cy="0" r="1" gradientUnits="userSpaceOnUse" gradientTransform="translate(251.275 68.2843) rotate(90) scale(11.6041)">
<stop stop-color="#8A21C4"/>
<stop offset="1" stop-color="#CA9BE4"/>
</radialGradient>
<radialGradient id="paint10_radial_2111_9790" cx="0" cy="0" r="1" gradientUnits="userSpaceOnUse" gradientTransform="translate(249.044 71.1109) rotate(90) scale(11.6041)">
<stop stop-color="#8A21C4"/>
<stop offset="1" stop-color="#CA9BE4"/>
</radialGradient>
<radialGradient id="paint11_radial_2111_9790" cx="0" cy="0" r="1" gradientUnits="userSpaceOnUse" gradientTransform="translate(251.276 68.2843) rotate(90) scale(11.6041)">
<stop stop-color="#8A21C4"/>
<stop offset="1" stop-color="#CA9BE4"/>
</radialGradient>
</defs>
</svg>
